<svg width="42" height="42" viewBox="0 0 42 42" fill="none" xmlns="http://www.w3.org/2000/svg">
<path fill-rule="evenodd" clip-rule="evenodd" d="M23.4138 7.18089L21 3L18.5862 7.18089C10.8949 8.34473 5 14.9839 5 23C5 31.8366 12.1634 39 21 39C29.8366 39 37 31.8366 37 23C37 14.9839 31.1051 8.34473 23.4138 7.18089Z" fill="#3C74DC"/>
<circle cx="21" cy="23" r="14" fill="#3C74DC"/>
<path d="M24.8315 24.0936C23.755 22.7938 22.3943 22.078 21 22.078C19.6057 22.078 18.245 22.7938 17.1685 24.0936C16.2009 25.2618 15.6233 26.7342 15.6233 28.0322C15.6233 28.6627 15.816 29.1429 16.1962 29.4596C16.5713 29.7723 17.0667 29.878 17.6193 29.878C18.2073 29.878 18.8603 29.7582 19.5018 29.6405C20.0624 29.5377 20.5919 29.4406 21 29.4406C21.3523 29.4406 21.8489 29.5328 22.3747 29.6303C23.6033 29.8585 24.9959 30.117 25.8004 29.4481C26.1828 29.1301 26.3767 28.6537 26.3767 28.0322C26.3768 26.7342 25.7991 25.2618 24.8315 24.0936Z" fill="#F0F0F0"/>
<path d="M24.9416 17.0358C24.5477 16.4551 23.9837 16.1221 23.3942 16.1221C22.8046 16.1221 22.2406 16.4551 21.8468 17.0358C21.4849 17.5693 21.2857 18.2698 21.2857 19.0085C21.2857 19.7471 21.4849 20.4477 21.8468 20.9811C22.2406 21.5618 22.8046 21.8949 23.3942 21.8949C23.9837 21.8949 24.5477 21.5618 24.9416 20.9811C25.3034 20.4477 25.5027 19.7471 25.5027 19.0085C25.5027 18.2698 25.3034 17.5692 24.9416 17.0358Z" fill="#F0F0F0"/>
<path d="M20.1533 17.0358C19.7594 16.4551 19.1954 16.122 18.6059 16.122C18.0163 16.122 17.4523 16.4551 17.0585 17.0358C16.6967 17.5692 16.4974 18.2698 16.4974 19.0084C16.4974 19.7471 16.6966 20.4476 17.0585 20.9811C17.4523 21.5618 18.0163 21.8949 18.6059 21.8949C19.1954 21.8949 19.7594 21.5618 20.1533 20.9811C20.5151 20.4476 20.7144 19.7471 20.7144 19.0084C20.7143 18.2698 20.5151 17.5692 20.1533 17.0358Z" fill="#F0F0F0"/>
<path d="M28.9068 21.5667C28.7481 21.0265 28.4077 20.6341 27.9486 20.4616C27.5791 20.3228 27.162 20.3463 26.7741 20.5279C26.2396 20.778 25.8027 21.2945 25.5755 21.9449C25.3898 22.4764 25.3667 23.0382 25.5103 23.5268C25.6691 24.067 26.0094 24.4594 26.4686 24.6319C26.6275 24.6916 26.7952 24.7213 26.9656 24.7213C27.1914 24.7213 27.422 24.6691 27.6431 24.5656C28.1777 24.3155 28.6146 23.799 28.8418 23.1486V23.1486C29.0274 22.6171 29.0505 22.0553 28.9068 21.5667Z" fill="#F0F0F0"/>
<path d="M16.4246 21.9448C16.1974 21.2944 15.7605 20.778 15.226 20.5278C14.8381 20.3463 14.4209 20.3228 14.0515 20.4616C13.5923 20.6341 13.2519 21.0265 13.0932 21.5666C12.9495 22.0553 12.9727 22.6171 13.1583 23.1486V23.1486C13.3856 23.799 13.8224 24.3155 14.3569 24.5656C14.5781 24.6691 14.8087 24.7212 15.0345 24.7212C15.2049 24.7212 15.3726 24.6915 15.5314 24.6319C15.9907 24.4594 16.331 24.0669 16.4898 23.5268C16.6334 23.0382 16.6102 22.4764 16.4246 21.9448Z" fill="#F0F0F0"/>
</svg>
