<svg width="42" height="42" viewBox="0 0 42 42" fill="none" xmlns="http://www.w3.org/2000/svg">
<path fill-rule="evenodd" clip-rule="evenodd" d="M23.4138 7.18089L21 3L18.5862 7.18089C10.8949 8.34472 5 14.9839 5 23C5 31.8366 12.1634 39 21 39C29.8366 39 37 31.8366 37 23C37 14.9839 31.1051 8.34472 23.4138 7.18089Z" fill="#3C74DC"/>
<circle cx="21" cy="23" r="14" fill="#3C74DC"/>
<g clip-path="url(#clip0)">
<path d="M26.6484 21.9079C26.3777 21.9079 26.1145 21.9404 25.8622 22.0013L24.5292 18.8022L25.6856 18.4168C25.9618 18.3247 26.1112 18.026 26.019 17.7497C25.9269 17.4735 25.6285 17.324 25.352 17.4162L23.6214 17.9946C23.3526 18.1066 23.2255 18.4153 23.3375 18.6842L23.6688 19.4794L19.0467 20.6811L18.572 19.5735H19.3055C19.5967 19.5735 19.8328 19.3374 19.8328 19.0462C19.8328 18.7549 19.5967 18.5188 19.3055 18.5188H17.0461C16.7548 18.5188 16.5187 18.7549 16.5187 19.0462C16.5187 19.3374 16.7548 19.5735 17.0461 19.5735H17.4245L18.1266 21.2116L17.1045 22.404C16.5942 22.0896 15.9938 21.9079 15.3516 21.9079C13.5035 21.9079 12 23.4114 12 25.2595C12 27.1075 13.5035 28.611 15.3516 28.611C17.0202 28.611 18.4078 27.3852 18.6615 25.7868H20.4351C20.6036 25.7868 20.7619 25.7063 20.8612 25.5701L24.2628 20.9051L24.889 22.408C23.9342 22.9993 23.2968 24.0562 23.2968 25.2594C23.2968 27.1075 24.8003 28.611 26.6483 28.611C28.4964 28.611 30 27.1075 30 25.2595C30 23.4114 28.4965 21.9079 26.6484 21.9079ZM15.3516 27.5563C14.0851 27.5563 13.0547 26.526 13.0547 25.2595C13.0547 23.9929 14.0851 22.9626 15.3516 22.9626C15.7313 22.9626 16.0895 23.0558 16.4054 23.2197L14.9512 24.9163C14.8171 25.0727 14.7864 25.2927 14.8724 25.4798C14.9585 25.6669 15.1456 25.7868 15.3516 25.7868H17.5866C17.3476 26.7999 16.4366 27.5563 15.3516 27.5563ZM16.4981 24.7321L18.5897 22.292L19.6354 24.7321H16.4981ZM20.5549 24.2002L19.4669 21.6616L23.0935 20.7186L20.5549 24.2002ZM26.6484 27.5563C25.3819 27.5563 24.3516 26.526 24.3516 25.2595C24.3516 24.4955 24.7269 23.8179 25.3024 23.4001L26.1616 25.4623C26.2736 25.7311 26.5824 25.8583 26.8512 25.7463C27.1201 25.6342 27.2472 25.3255 27.1352 25.0567L26.2755 22.9933C26.3969 22.9734 26.5214 22.9626 26.6484 22.9626C27.9149 22.9626 28.9453 23.993 28.9453 25.2595C28.9453 26.5259 27.9149 27.5563 26.6484 27.5563Z" fill="#F0F0F0"/>
</g>
<defs>
<clipPath id="clip0">
<rect width="18" height="18" fill="white" transform="translate(12 14)"/>
</clipPath>
</defs>
</svg>
