<svg width="42" height="42" viewBox="0 0 42 42" fill="none" xmlns="http://www.w3.org/2000/svg">
<path fill-rule="evenodd" clip-rule="evenodd" d="M23.4138 7.18089L21 3L18.5862 7.18089C10.8949 8.34472 5 14.9839 5 23C5 31.8366 12.1634 39 21 39C29.8366 39 37 31.8366 37 23C37 14.9839 31.1051 8.34472 23.4138 7.18089Z" fill="#3C74DC"/>
<circle cx="21" cy="23" r="14" fill="#3C74DC"/>
<path d="M15.3371 26.7311H21.0486V15L15.3371 26.7311Z" fill="#F0F0F0"/>
<path d="M22.0329 17.4139V26.7311H26.5691L22.0329 17.4139Z" fill="#F0F0F0"/>
<path d="M13.266 27.7154C13.8899 28.6802 14.7398 29.4863 15.7395 30.0565C16.8218 30.6737 18.0524 31 19.2983 31H25.128C25.8936 31 26.6226 30.758 27.2362 30.3002C27.8498 29.8424 28.2894 29.2124 28.5074 28.4786L28.734 27.7154H13.266Z" fill="#F0F0F0"/>
</svg>
