<svg width="42" height="42" viewBox="0 0 42 42" fill="none" xmlns="http://www.w3.org/2000/svg">
<path fill-rule="evenodd" clip-rule="evenodd" d="M23.4138 7.18089L21 3L18.5862 7.18089C10.8949 8.34472 5 14.9839 5 23C5 31.8366 12.1634 39 21 39C29.8366 39 37 31.8366 37 23C37 14.9839 31.1051 8.34472 23.4138 7.18089Z" fill="#3C74DC"/>
<circle cx="21" cy="23" r="14" fill="#3C74DC"/>
<g clip-path="url(#clip0)">
<path d="M23.4033 17.1252L17.0502 20.3779L14.525 19.1354L20.7661 16.0537C20.9061 15.9825 21.0741 15.9825 21.2211 16.0537L23.4033 17.1252Z" fill="#F0F0F0"/>
<path d="M27.468 19.1354L21.0035 22.3379L18.5826 21.145L18.2326 20.9671L24.5927 17.715L24.9427 17.8923L27.468 19.1354Z" fill="#F0F0F0"/>
<path d="M20.4855 23.2607L20.4785 30L14.287 26.7689C14.112 26.6767 14 26.4918 14 26.2929V20.0582L16.6238 21.3509V23.6236C16.6238 23.9147 16.8618 24.1562 17.1488 24.1562C17.4358 24.1562 17.6738 23.9147 17.6738 23.6236V21.8765L18.0238 22.0468L20.4855 23.2607Z" fill="#F0F0F0"/>
<path d="M27.993 20.0652L21.5355 23.2537L21.5285 29.993L28 26.6137L27.993 20.0652Z" fill="#F0F0F0"/>
</g>
<defs>
<clipPath id="clip0">
<rect width="14" height="14" fill="white" transform="translate(14 16)"/>
</clipPath>
</defs>
</svg>
