<svg width="42" height="42" viewBox="0 0 42 42" fill="none" xmlns="http://www.w3.org/2000/svg">
<path fill-rule="evenodd" clip-rule="evenodd" d="M23.4138 7.18089L21 3L18.5862 7.18089C10.8949 8.34472 5 14.9839 5 23C5 31.8366 12.1634 39 21 39C29.8366 39 37 31.8366 37 23C37 14.9839 31.1051 8.34472 23.4138 7.18089Z" fill="#3C74DC"/>
<circle cx="21" cy="23" r="14" fill="#3C74DC"/>
<path d="M15.4583 22.4167V20.6667C15.6193 20.6667 15.75 20.536 15.75 20.375C15.75 20.214 15.6193 20.0833 15.4583 20.0833C14.6539 20.0833 14 20.7378 14 21.5417V22.125C14 22.6074 14.3926 23 14.875 23H15.4583C15.6193 23 15.75 22.8693 15.75 22.7083C15.75 22.5473 15.6193 22.4167 15.4583 22.4167Z" fill="#F0F0F0"/>
<path d="M26.5417 20.0833C26.3807 20.0833 26.25 20.214 26.25 20.375C26.25 20.536 26.3807 20.6667 26.5417 20.6667V22.4167C26.3807 22.4167 26.25 22.5474 26.25 22.7084C26.25 22.8694 26.3807 23 26.5417 23H27.125C27.6074 23 28 22.6074 28 22.125V21.5417C28 20.7378 27.3461 20.0833 26.5417 20.0833Z" fill="#F0F0F0"/>
<path d="M18.9583 28.25C18.7973 28.25 18.6666 28.3807 18.6666 28.5417H16.9166C16.9166 28.3807 16.786 28.25 16.625 28.25C16.464 28.25 16.3333 28.3807 16.3333 28.5417V29.125C16.3333 29.6074 16.7259 30 17.2083 30H18.375C18.8574 30 19.25 29.6074 19.25 29.125V28.5417C19.25 28.3807 19.1193 28.25 18.9583 28.25Z" fill="#F0F0F0"/>
<path d="M25.375 28.25C25.214 28.25 25.0833 28.3807 25.0833 28.5417H23.3333C23.3333 28.3807 23.2026 28.25 23.0416 28.25C22.8806 28.25 22.75 28.3807 22.75 28.5417V29.125C22.75 29.6074 23.1426 30 23.625 30H24.7917C25.2741 30 25.6667 29.6074 25.6667 29.125V28.5417C25.6667 28.3807 25.536 28.25 25.375 28.25Z" fill="#F0F0F0"/>
<path d="M25.375 16H16.625C15.8206 16 15.1667 16.6545 15.1667 17.4583V27.375C15.1667 28.1788 15.8206 28.8333 16.625 28.8333H25.375C26.1794 28.8333 26.8333 28.1788 26.8333 27.375V17.4583C26.8333 16.6545 26.1794 16 25.375 16ZM17.7917 17.1667H24.2084C24.6908 17.1667 25.0834 17.5592 25.0834 18.0417C25.0834 18.5241 24.6908 18.9167 24.2084 18.9167H17.7917C17.3093 18.9167 16.9167 18.5241 16.9167 18.0417C16.9167 17.5592 17.3093 17.1667 17.7917 17.1667ZM17.7917 27.0833C17.3093 27.0833 16.9167 26.6908 16.9167 26.2083C16.9167 25.7259 17.3093 25.3333 17.7917 25.3333C18.2741 25.3333 18.6667 25.7259 18.6667 26.2083C18.6667 26.6908 18.2741 27.0833 17.7917 27.0833ZM24.2083 27.0833C23.7259 27.0833 23.3333 26.6908 23.3333 26.2083C23.3333 25.7259 23.7259 25.3333 24.2083 25.3333C24.6908 25.3333 25.0833 25.7259 25.0833 26.2083C25.0833 26.6908 24.6908 27.0833 24.2083 27.0833ZM25.6667 23.2917C25.6667 23.7741 25.2741 24.1667 24.7917 24.1667H17.2083C16.7259 24.1667 16.3333 23.7741 16.3333 23.2917V20.375C16.3333 19.8926 16.7259 19.5 17.2083 19.5H24.7917C25.2741 19.5 25.6667 19.8926 25.6667 20.375V23.2917H25.6667Z" fill="#F0F0F0"/>
</svg>
