<svg width="42" height="42" viewBox="0 0 42 42" fill="none" xmlns="http://www.w3.org/2000/svg">
<path fill-rule="evenodd" clip-rule="evenodd" d="M23.4138 7.18089L21 3L18.5862 7.18089C10.8949 8.34472 5 14.9839 5 23C5 31.8366 12.1634 39 21 39C29.8366 39 37 31.8366 37 23C37 14.9839 31.1051 8.34472 23.4138 7.18089Z" fill="#3C74DC"/>
<circle cx="21" cy="23" r="14" fill="#3C74DC"/>
<path d="M27.794 21.1662L26.6719 17.4258C26.416 16.5728 25.646 16 24.7559 16H17.2441C16.354 16 15.584 16.5728 15.3281 17.4258L14.206 21.1662C13.4974 21.4741 13 22.1793 13 23V27C13 27.5522 13.4478 28 14 28H14.0001L14 28.9999C14 29.5522 14.4477 30 15 30H16.0001C16.5523 30 17.0001 29.5522 17.0001 29L16.9996 28H25L24.9999 28.9999C24.9999 29.5522 25.4476 30 25.9999 30H27C27.5523 30 28 29.5522 28 29V28.0001L27.9996 28H28C28.5522 28 29 27.5522 29 27V23C29 22.1793 28.5026 21.4741 27.794 21.1662L27.794 21.1662ZM17.2441 18H24.7558L25.6559 21H16.3441L17.2441 18H17.2441ZM17 25.5C16.4477 25.5 16 25.0522 16 24.5C16 23.9477 16.4477 23.5 17 23.5C17.5523 23.5 18 23.9477 18 24.5C18 25.0522 17.5523 25.5 17 25.5ZM25 25.5C24.4477 25.5 24 25.0522 24 24.5C24 23.9477 24.4477 23.5 25 23.5C25.5523 23.5 26 23.9477 26 24.5C26 25.0522 25.5523 25.5 25 25.5Z" fill="#F0F0F0"/>
</svg>
