<svg width="42" height="42" viewBox="0 0 42 42" fill="none" xmlns="http://www.w3.org/2000/svg">
<path fill-rule="evenodd" clip-rule="evenodd" d="M23.4138 7.18089L21 3L18.5862 7.18089C10.8949 8.34472 5 14.9839 5 23C5 31.8366 12.1634 39 21 39C29.8366 39 37 31.8366 37 23C37 14.9839 31.1051 8.34472 23.4138 7.18089Z" fill="#3C74DC"/>
<circle cx="21" cy="23" r="14" fill="#3C74DC"/>
<path d="M21.9356 19.6609C22.1169 19.4465 22.2305 19.1732 22.2305 18.8711C22.2305 18.3364 21.8876 17.8802 21.4102 17.7107V16.8203H22.2305V16H19.7695V16.8203H20.5898V18.4609H21C21.2263 18.4609 21.4102 18.6448 21.4102 18.8711C21.4102 19.0974 21.2263 19.2812 21 19.2812C20.7737 19.2812 20.5898 19.0974 20.5898 18.8711H19.7695C19.7695 19.1732 19.8831 19.4465 20.0644 19.6609L15.9796 21.7422H14V30H28V21.7422H26.0204L21.9356 19.6609ZM20.9999 20.1016H21.0001L24.2155 21.7422H17.7845L20.9999 20.1016ZM16.4883 28.3594H15.668V23.3828H16.4883V28.3594ZM18.9492 28.3594H18.1289V23.3828H18.9492V28.3594ZM21.4102 28.3594H20.5898V23.3828H21.4102V28.3594ZM23.8711 28.3594H23.0508V23.3828H23.8711V28.3594ZM26.332 28.3594H25.5117V23.3828H26.332V28.3594Z" fill="#F0F0F0"/>
</svg>
