<svg width="42" height="42" viewBox="0 0 42 42" fill="none" xmlns="http://www.w3.org/2000/svg">
<path fill-rule="evenodd" clip-rule="evenodd" d="M23.4138 7.18089L21 3L18.5862 7.18089C10.8949 8.34472 5 14.9839 5 23C5 31.8366 12.1634 39 21 39C29.8366 39 37 31.8366 37 23C37 14.9839 31.1051 8.34472 23.4138 7.18089Z" fill="#3C74DC"/>
<circle cx="21" cy="23" r="14" fill="#3C74DC"/>
<g clip-path="url(#clip0)">
<path d="M22.4583 25.3333C21.6539 25.3333 21 24.6788 21 23.875V22.125C21 21.3212 21.6539 20.6667 22.4583 20.6667C23.2627 20.6667 23.9167 21.3212 23.9167 22.125V23.875C23.9167 24.6788 23.2627 25.3333 22.4583 25.3333ZM22.4583 21.5417C22.1363 21.5417 21.875 21.8036 21.875 22.125V23.875C21.875 24.1964 22.1363 24.4583 22.4583 24.4583C22.7803 24.4583 23.0417 24.1964 23.0417 23.875V22.125C23.0417 21.8036 22.7803 21.5417 22.4583 21.5417Z" fill="#F0F0F0"/>
<path d="M22.4583 25.3333C21.6539 25.3333 21 24.6788 21 23.875C21 23.0712 21.6539 22.4167 22.4583 22.4167C23.2627 22.4167 23.9167 23.0712 23.9167 23.875C23.9167 24.6788 23.2627 25.3333 22.4583 25.3333ZM22.4583 23.2917C22.1363 23.2917 21.875 23.5536 21.875 23.875C21.875 24.1964 22.1363 24.4583 22.4583 24.4583C22.7803 24.4583 23.0417 24.1964 23.0417 23.875C23.0417 23.5536 22.7803 23.2917 22.4583 23.2917Z" fill="#F0F0F0"/>
<path d="M19.1036 28.25C19.0365 28.25 18.9677 28.2343 18.9035 28.2016C18.6888 28.0908 18.6043 27.8265 18.7157 27.6124L21.049 23.0916C21.1587 22.8769 21.4235 22.7923 21.6382 22.9032C21.8528 23.014 21.9374 23.2783 21.826 23.4923L19.4927 28.0132C19.4151 28.1637 19.2623 28.25 19.1036 28.25Z" fill="#F0F0F0"/>
<path d="M25.8131 28.25C25.6544 28.25 25.5016 28.1637 25.424 28.0132L23.0907 23.4923C22.9798 23.2777 23.0638 23.014 23.2785 22.9032C23.4932 22.7923 23.7568 22.8769 23.8677 23.0916L26.201 27.6124C26.3118 27.8271 26.2278 28.0908 26.0132 28.2016C25.949 28.2343 25.8802 28.25 25.8131 28.25Z" fill="#F0F0F0"/>
<path d="M26.9792 27.375H17.9375C17.696 27.375 17.5 27.571 17.5 27.8125V29.5625C17.5 29.804 17.696 30 17.9375 30H26.9792C27.2207 30 27.4167 29.804 27.4167 29.5625V27.8125C27.4167 27.571 27.2207 27.375 26.9792 27.375Z" fill="#F0F0F0"/>
<path d="M27.5625 28.25H17.3542C17.1127 28.25 16.9167 28.054 16.9167 27.8125C16.9167 27.571 17.1127 27.375 17.3542 27.375H27.5625C27.804 27.375 28 27.571 28 27.8125C28 28.054 27.804 28.25 27.5625 28.25Z" fill="#F0F0F0"/>
<path d="M27.5625 30H17.3542C17.1127 30 16.9167 29.804 16.9167 29.5625C16.9167 29.321 17.1127 29.125 17.3542 29.125H27.5625C27.804 29.125 28 29.321 28 29.5625C28 29.804 27.804 30 27.5625 30Z" fill="#F0F0F0"/>
<path d="M22.8958 21.5417H22.0208C21.896 21.5417 21.777 21.488 21.6936 21.3947L20.5269 20.0822C20.3665 19.9013 20.3828 19.6254 20.5637 19.4644C20.5643 19.4638 24.353 19.4644 24.353 19.4644C24.5338 19.6254 24.5502 19.9019 24.3898 20.0822L23.2231 21.3947C23.1397 21.488 23.0207 21.5417 22.8958 21.5417Z" fill="#F0F0F0"/>
<path d="M25.9583 16H14.4375C14.196 16 14 16.196 14 16.4375V19.6458C14 19.8873 14.196 20.0833 14.4375 20.0833H25.9583C27.0842 20.0833 28 19.1675 28 18.0417C28 16.9158 27.0842 16 25.9583 16ZM22.8958 18.4792H16.1875C15.946 18.4792 15.75 18.2832 15.75 18.0417C15.75 17.8002 15.946 17.6042 16.1875 17.6042H22.8958C23.1373 17.6042 23.3333 17.8002 23.3333 18.0417C23.3333 18.2832 23.1373 18.4792 22.8958 18.4792ZM25.375 18.625C25.053 18.625 24.7917 18.3637 24.7917 18.0417C24.7917 17.7197 25.053 17.4583 25.375 17.4583C25.697 17.4583 25.9583 17.7197 25.9583 18.0417C25.9583 18.3637 25.697 18.625 25.375 18.625Z" fill="#F0F0F0"/>
</g>
<defs>
<clipPath id="clip0">
<rect width="14" height="14" fill="white" transform="translate(14 16)"/>
</clipPath>
</defs>
</svg>
