<svg width="42" height="42" viewBox="0 0 42 42" fill="none" xmlns="http://www.w3.org/2000/svg">
<path fill-rule="evenodd" clip-rule="evenodd" d="M23.4138 7.18089L21 3L18.5862 7.18089C10.8949 8.34472 5 14.9839 5 23C5 31.8366 12.1634 39 21 39C29.8366 39 37 31.8366 37 23C37 14.9839 31.1051 8.34472 23.4138 7.18089Z" fill="#3C74DC"/>
<circle cx="21" cy="23" r="14" fill="#3C74DC"/>
<g clip-path="url(#clip0)">
<path d="M14.5828 19.0897V30H27.4172V19.0897H14.5828ZM19.8609 19.871C20.0917 19.871 20.2627 20.0596 20.2726 20.2827C20.2826 20.505 20.0763 20.6944 19.8609 20.6944C19.6301 20.6944 19.4592 20.5057 19.4492 20.2827C19.4393 20.0603 19.6456 19.871 19.8609 19.871ZM16.6221 20.6944C16.3913 20.6944 16.2204 20.5057 16.2104 20.2827C16.2004 20.0603 16.4068 19.871 16.6221 19.871C16.8529 19.871 17.0238 20.0596 17.0338 20.2827C17.0438 20.505 16.8375 20.6944 16.6221 20.6944ZM18.2415 20.6944C18.0107 20.6944 17.8398 20.5057 17.8298 20.2827C17.8198 20.0603 18.0262 19.871 18.2415 19.871C18.4723 19.871 18.6432 20.0596 18.6532 20.2827C18.6632 20.505 18.4569 20.6944 18.2415 20.6944ZM22.4348 25.1318L23.0717 24.8459L23.4089 25.5971L22.8455 25.85L22.9081 26.4645L22.0889 26.548L22.0169 25.8413L21.4167 25.4948V26.1979L21.9827 26.6065L21.5008 27.2741L21 26.9126L20.4992 27.2741L20.0173 26.6065L20.5933 26.1907V25.4919L19.985 25.8431L19.9136 26.5437L19.0944 26.4602L19.157 25.8457L18.5936 25.5928L18.9308 24.8416L19.5733 25.13L20.1791 24.7803L19.5758 24.432L18.9333 24.7204L18.5961 23.9692L19.1595 23.7163L19.0968 23.1018L19.916 23.0183L19.9875 23.7189L20.5933 24.0686V23.372L20.0222 22.9598L20.5042 22.2922L21.005 22.6536L21.5058 22.2922L21.9877 22.9598L21.4167 23.372V24.0657L22.0206 23.7171L22.0914 23.0226L22.9106 23.1061L22.848 23.7206L23.4114 23.9735L23.0742 24.7247L22.4261 24.4338L21.8259 24.7803L22.4348 25.1318Z" fill="#F0F0F0"/>
<path d="M27.4182 18.2662V17.4158C27.4182 16.6351 26.7831 16 26.0024 16H15.9995C15.2188 16 14.5837 16.6351 14.5837 17.4158V18.2662H27.4182Z" fill="#F0F0F0"/>
</g>
<defs>
<clipPath id="clip0">
<rect width="14" height="14" fill="white" transform="translate(14 16)"/>
</clipPath>
</defs>
</svg>
