<svg width="42" height="42" viewBox="0 0 42 42" fill="none" xmlns="http://www.w3.org/2000/svg">
<path fill-rule="evenodd" clip-rule="evenodd" d="M23.4138 7.18089L21 3L18.5862 7.18089C10.8949 8.34472 5 14.9839 5 23C5 31.8366 12.1634 39 21 39C29.8366 39 37 31.8366 37 23C37 14.9839 31.1051 8.34472 23.4138 7.18089Z" fill="#3C74DC"/>
<circle cx="21" cy="23" r="14" fill="#3C74DC"/>
<g clip-path="url(#clip0)">
<path d="M14.3337 23.3333C15.0701 23.3333 15.667 22.7364 15.667 22C15.667 21.2636 15.0701 20.6667 14.3337 20.6667C13.5973 20.6667 13.0004 21.2636 13.0004 22C13.0004 22.7364 13.5973 23.3333 14.3337 23.3333Z" fill="#F0F0F0"/>
<path d="M23.6668 21.3334C23.4828 21.3334 23.3335 21.4827 23.3335 21.6667C23.3335 21.8507 23.4828 22 23.6668 22C26.4014 22 28.3333 24.5013 28.3333 25C28.3333 25.184 28.4827 25.3333 28.6667 25.3333C28.8507 25.3333 29 25.184 29 25C29 23.9667 26.6347 21.3334 23.6668 21.3334Z" fill="#F0F0F0"/>
<path d="M28.6667 24.6666H25.6587C25.2134 24.6666 24.8288 24.38 24.7001 23.954L23.9641 21.5174L23.2975 20.1841C23.2415 20.0714 23.1262 20.0001 23.0002 20.0001H22.0002C21.9115 20.0001 21.8268 20.0354 21.7642 20.0974L20.5289 21.3334H15.3337C15.1497 21.3334 15.0004 21.4827 15.0004 21.6667V22.3334C15.0004 22.496 15.1184 22.6354 15.279 22.662C16.5003 22.866 18.5796 23.3667 19.0569 23.858L19.0783 23.8993C19.7082 25.1327 20.4929 26.6666 22.0002 26.6666H26.6667C27.9967 26.6666 29 25.95 29 25C29 24.8159 28.8507 24.6666 28.6667 24.6666Z" fill="#F0F0F0"/>
<path d="M14.9757 20.8914L14.309 19.5581C14.2304 19.4007 14.041 19.3321 13.8784 19.4027L13.2017 19.6941C13.0431 19.7627 12.9624 19.9414 13.0171 20.1054L13.3504 21.1054C13.4098 21.28 13.5991 21.374 13.7724 21.316C13.9078 21.2714 13.9924 21.148 13.9978 21.0134L14.2964 21.0254L14.3791 21.19C14.4377 21.3067 14.5557 21.374 14.6771 21.374C14.7271 21.374 14.7777 21.3627 14.8264 21.3387C14.991 21.256 15.0577 21.056 14.9757 20.8914Z" fill="#F0F0F0"/>
<path d="M14.8164 22.702C14.6524 22.6213 14.4517 22.6867 14.369 22.8513L14.327 22.934C14.2964 22.7813 14.1617 22.6667 14.0004 22.6667C13.8164 22.6667 13.667 22.816 13.667 23V23.6666C13.667 23.8506 13.8164 24 14.0004 24H14.3337C14.4597 24 14.575 23.9286 14.6317 23.816L14.965 23.1493C15.047 22.9847 14.981 22.784 14.8164 22.702Z" fill="#F0F0F0"/>
<path d="M22.6668 18.0001C22.4828 18.0001 22.3335 18.1494 22.3335 18.3334V18.6668C22.3335 18.8508 22.4828 19.0001 22.6668 19.0001C22.8508 19.0001 23.0002 18.8508 23.0002 18.6668V18.3334C23.0002 18.1494 22.8508 18.0001 22.6668 18.0001Z" fill="#F0F0F0"/>
<path d="M28.6667 18.6668H22.6668C22.4828 18.6668 22.3335 18.8161 22.3335 19.0001C22.3335 19.1841 22.4828 19.3335 22.6668 19.3335H28.6667C28.8507 19.3335 29 19.1841 29 19.0001C29 18.8161 28.8507 18.6668 28.6667 18.6668Z" fill="#F0F0F0"/>
<path d="M22.6668 18.6668H16.667C16.483 18.6668 16.3336 18.8161 16.3336 19.0001C16.3336 19.1841 16.483 19.3335 16.667 19.3335H22.6668C22.8508 19.3335 23.0002 19.1841 23.0002 19.0001C23.0002 18.8161 22.8508 18.6668 22.6668 18.6668Z" fill="#F0F0F0"/>
<path d="M24.0001 25.9999C23.8161 25.9999 23.6668 26.1492 23.6668 26.3332V27.6665C23.6668 27.8505 23.8161 27.9999 24.0001 27.9999C24.1841 27.9999 24.3335 27.8505 24.3335 27.6665V26.3332C24.3335 26.1492 24.1841 25.9999 24.0001 25.9999Z" fill="#F0F0F0"/>
<path d="M26.6667 25.9999C26.4827 25.9999 26.3334 26.1492 26.3334 26.3332V27.6665C26.3334 27.8505 26.4827 27.9999 26.6667 27.9999C26.8507 27.9999 27.0001 27.8505 27.0001 27.6665V26.3332C27.0001 26.1492 26.8507 25.9999 26.6667 25.9999Z" fill="#F0F0F0"/>
<path d="M28.8294 26.7092C28.6687 26.6192 28.4654 26.6766 28.3754 26.8372C28.2174 27.1192 27.5734 27.2952 27.3334 27.3332H20.6669C20.4829 27.3332 20.3335 27.4826 20.3335 27.6666C20.3335 27.8506 20.4829 27.9999 20.6669 27.9999L27.3794 27.9966C27.5027 27.9792 28.5953 27.8092 28.9573 27.1626C29.0473 27.0019 28.99 26.7992 28.8294 26.7092Z" fill="#F0F0F0"/>
</g>
<defs>
<clipPath id="clip0">
<rect width="16" height="16" fill="white" transform="translate(13 15)"/>
</clipPath>
</defs>
</svg>
