<svg width="42" height="42" viewBox="0 0 42 42" fill="none" xmlns="http://www.w3.org/2000/svg">
<path fill-rule="evenodd" clip-rule="evenodd" d="M23.4138 7.18089L21 3L18.5862 7.18089C10.8949 8.34472 5 14.9839 5 23C5 31.8366 12.1634 39 21 39C29.8366 39 37 31.8366 37 23C37 14.9839 31.1051 8.34472 23.4138 7.18089Z" fill="#3C74DC"/>
<circle cx="21" cy="23" r="14" fill="#3C74DC"/>
<g clip-path="url(#clip0)">
<path d="M28.7313 22.1526L21.5526 15.6115C21.2375 15.3243 20.7624 15.3243 20.4474 15.6114L13.2687 22.1527C13.0163 22.3827 12.9329 22.737 13.0562 23.0554C13.1796 23.3739 13.4799 23.5796 13.8213 23.5796H14.9679V30.1333C14.9679 30.3932 15.1786 30.6039 15.4384 30.6039H19.3732C19.6331 30.6039 19.8438 30.3932 19.8438 30.1333V26.1541H22.1563V30.1334C22.1563 30.3932 22.367 30.6039 22.6269 30.6039H26.5615C26.8213 30.6039 27.032 30.3932 27.032 30.1334V23.5796H28.1788C28.5202 23.5796 28.8206 23.3738 28.9439 23.0554C29.0671 22.737 28.9837 22.3827 28.7313 22.1526Z" fill="#F0F0F0"/>
</g>
<defs>
<clipPath id="clip0">
<rect width="16" height="16" fill="white" transform="translate(13 15)"/>
</clipPath>
</defs>
</svg>
