<svg width="42" height="42" viewBox="0 0 42 42" fill="none" xmlns="http://www.w3.org/2000/svg">
<path fill-rule="evenodd" clip-rule="evenodd" d="M23.4138 7.18089L21 3L18.5862 7.18089C10.8949 8.34472 5 14.9839 5 23C5 31.8366 12.1634 39 21 39C29.8366 39 37 31.8366 37 23C37 14.9839 31.1051 8.34472 23.4138 7.18089Z" fill="#3C74DC"/>
<circle cx="21" cy="23" r="14" fill="#3C74DC"/>
<path d="M27.0012 22.2524C25.3488 22.2524 24.0023 23.5989 24.0023 25.2512C24.0023 26.9036 25.3453 28.2501 27.0012 28.2501C28.6535 28.2501 30 26.9071 30 25.2512C30 23.5954 28.6535 22.2524 27.0012 22.2524ZM27.0012 27.5012C25.7602 27.5012 24.7512 26.4922 24.7512 25.2512C24.7512 24.0102 25.7602 23.0012 27.0012 23.0012C28.2422 23.0012 29.2512 24.0102 29.2512 25.2512C29.2512 26.4922 28.2422 27.5012 27.0012 27.5012Z" fill="#F0F0F0"/>
<path d="M17.9062 24.5376C17.857 24.3372 17.6531 24.2141 17.4527 24.2633C17.2523 24.3126 17.1293 24.5165 17.1785 24.7169C17.2277 24.9172 17.2488 25.086 17.2488 25.2512C17.2488 26.4922 16.2398 27.5012 14.9988 27.5012C13.7578 27.5012 12.7488 26.4922 12.7488 25.2512C12.7488 24.3688 13.2727 23.5637 14.0812 23.2016C14.2711 23.1172 14.3555 22.8958 14.2711 22.7059C14.1867 22.5161 13.9652 22.4317 13.7754 22.5161C12.6961 23.0012 12 24.0735 12 25.2512C12 26.9036 13.343 28.2501 14.9988 28.2501C16.6547 28.2501 18.0012 26.9071 18.0012 25.2512C18.0012 25.0297 17.9695 24.7942 17.9062 24.5376Z" fill="#F0F0F0"/>
<path d="M26.1363 17.8579C26.0625 17.7876 25.9641 17.7489 25.8621 17.7524C25.5949 17.7594 23.25 17.8754 23.25 19.2536C23.25 20.6317 25.5949 20.7442 25.8621 20.7547C25.8656 20.7547 25.8691 20.7547 25.8727 20.7547C25.9711 20.7547 26.0625 20.7161 26.1328 20.6493C26.2066 20.579 26.2453 20.4805 26.2453 20.3786V18.1286C26.2488 18.0266 26.2102 17.9282 26.1363 17.8579Z" fill="#F0F0F0"/>
<path d="M23.7457 18.5188L21.4957 17.77C21.3023 17.7032 21.0879 17.8087 21.0211 18.0055C20.9543 18.2024 21.0598 18.4133 21.2566 18.4801L23.5066 19.229C23.5488 19.243 23.5875 19.2501 23.6262 19.2501C23.7809 19.2501 23.9285 19.1516 23.9813 18.9934C24.0481 18.7965 23.9426 18.5856 23.7457 18.5188Z" fill="#F0F0F0"/>
<path d="M27.3281 25.0684L24.3293 19.8196C24.2238 19.6368 23.9918 19.577 23.816 19.679C23.6332 19.7809 23.5734 20.0094 23.6754 20.1887L26.6742 25.4376C26.7445 25.5606 26.8711 25.6274 27.0012 25.6274C27.0644 25.6274 27.1277 25.6098 27.1875 25.5782C27.3703 25.4762 27.4301 25.2477 27.3281 25.0684Z" fill="#F0F0F0"/>
<path d="M17.625 24.8751L17.2172 24.7696L16.05 23.9891L16.0852 23.9188C16.1766 23.7325 16.1027 23.5075 15.9164 23.4161C15.7301 23.3247 15.5086 23.3985 15.4137 23.5848L14.6648 25.086C14.6086 25.202 14.6121 25.3391 14.6789 25.4516C14.7492 25.5606 14.8688 25.6309 14.9988 25.6309H17.625C17.8324 25.6309 18.0012 25.4622 18.0012 25.2548C18.0012 25.0473 17.8324 24.8751 17.625 24.8751Z" fill="#F0F0F0"/>
<path d="M24.1078 19.6684C23.9988 19.2817 23.7105 19.2501 23.6262 19.2501C21.6012 19.2501 19.6711 20.2907 18.5777 21.1837C18.518 21.145 18.4512 21.1239 18.3738 21.1239C17.618 21.1239 15.4594 20.7583 15.4383 20.7547C15.3293 20.7337 15.2168 20.7653 15.1324 20.8391C15.048 20.9094 14.9988 21.0149 14.9988 21.1239V21.5036C13.7754 21.5387 12.9668 21.7532 12.5941 22.1399C12.3797 22.3614 12.3727 22.5758 12.3727 22.6391C12.3832 22.8395 12.5449 22.9977 12.7488 22.9977C14.2676 22.9977 17.7129 25.1176 18.9117 25.9333C18.975 25.9755 19.0453 26.0001 19.1227 26.0001H22.125C23.3977 26.0001 24.157 21.043 24.157 20.1606C24.157 19.9532 24.1394 19.7915 24.1078 19.6684Z" fill="#F0F0F0"/>
</svg>
