<svg width="42" height="42" viewBox="0 0 42 42" fill="none" xmlns="http://www.w3.org/2000/svg">
<path fill-rule="evenodd" clip-rule="evenodd" d="M23.4138 7.18089L21 3L18.5862 7.18089C10.8949 8.34472 5 14.9839 5 23C5 31.8366 12.1634 39 21 39C29.8366 39 37 31.8366 37 23C37 14.9839 31.1051 8.34472 23.4138 7.18089Z" fill="#3C74DC"/>
<circle cx="21" cy="23" r="14" fill="#3C74DC"/>
<g clip-path="url(#clip0)">
<path d="M24.4479 23.8889L22.4276 26.5825L23.963 28.6297L23.1011 29.2761C22.1906 28.064 20.6768 26.0438 20.6768 26.0438L17.4444 30.3536H29.2964L24.4479 23.8889Z" fill="#F0F0F0"/>
<path d="M22.4867 19.2653L21.1494 17.165C20.8445 16.686 20.2545 16.4676 19.6813 16.6212L14.8441 17.9173C14.2709 18.0709 13.8692 18.555 13.8446 19.1223L13.7367 21.6099C13.331 21.921 13.1265 22.4393 13.2614 22.9426L13.9187 25.3958C14.0095 25.7345 14.3714 25.9318 14.727 25.8365L14.7271 25.8365L14.8913 26.4498C14.9821 26.7885 15.344 26.9858 15.6996 26.8905L16.3436 26.718C16.6992 26.6227 16.914 26.2708 16.8232 25.9322L16.6586 25.3189L21.8105 23.9385L21.9748 24.5518C22.0655 24.8905 22.4274 25.0878 22.783 24.9925L23.427 24.82C23.7827 24.7247 23.9974 24.3728 23.9067 24.0342L23.7423 23.4209L23.7421 23.4209L23.7423 23.4209C24.0979 23.3256 24.3127 22.9737 24.2219 22.635L23.5646 20.1819C23.4298 19.6785 22.9936 19.3319 22.4867 19.2653L22.4867 19.2653ZM15.1728 19.1439L20.0099 17.8478L21.0825 19.5323L15.0862 21.139L15.1728 19.1439L15.1728 19.1439ZM16.248 23.7857C15.8924 23.881 15.5305 23.6836 15.4397 23.3449C15.349 23.0062 15.5637 22.6544 15.9194 22.5591C16.275 22.4638 16.6369 22.6611 16.7276 22.9998C16.8184 23.3385 16.6037 23.6904 16.248 23.7857ZM21.3996 22.4053C21.044 22.5006 20.6821 22.3032 20.5914 21.9646C20.5006 21.6258 20.7153 21.274 21.071 21.1787C21.4266 21.0834 21.7885 21.2807 21.8793 21.6195C21.97 21.9581 21.7553 22.31 21.3996 22.4053Z" fill="#F0F0F0"/>
</g>
<defs>
<clipPath id="clip0">
<rect width="16" height="16" fill="white" transform="translate(13 15)"/>
</clipPath>
</defs>
</svg>
