<svg width="42" height="42" viewBox="0 0 42 42" fill="none" xmlns="http://www.w3.org/2000/svg">
<path fill-rule="evenodd" clip-rule="evenodd" d="M23.4138 7.18089L21 3L18.5862 7.18089C10.8949 8.34472 5 14.9839 5 23C5 31.8366 12.1634 39 21 39C29.8366 39 37 31.8366 37 23C37 14.9839 31.1051 8.34472 23.4138 7.18089Z" fill="#3C74DC"/>
<circle cx="21" cy="23" r="14" fill="#3C74DC"/>
<path d="M21 22.8251C22.7789 22.8251 24.2212 21.0734 24.2212 18.9125C24.2212 16.7517 23.7477 15 21 15C18.2524 15 17.7788 16.7517 17.7788 18.9125C17.7788 21.0734 19.221 22.8251 21 22.8251Z" fill="#F0F0F0"/>
<path d="M14.9159 28.799C14.9153 28.6672 14.9148 28.7619 14.9159 28.799V28.799Z" fill="#F0F0F0"/>
<path d="M27.0839 28.9019C27.0856 28.8658 27.0845 28.6517 27.0839 28.9019V28.9019Z" fill="#F0F0F0"/>
<path d="M27.0771 28.641C27.0174 24.8768 26.5258 23.8042 22.7638 23.1253C22.7638 23.1253 22.2343 23.8 21 23.8C19.7657 23.8 19.236 23.1253 19.236 23.1253C15.5151 23.7968 14.9936 24.8535 14.9251 28.5187C14.9194 28.818 14.9168 28.8337 14.9158 28.799C14.916 28.8641 14.9163 28.9845 14.9163 29.1945C14.9163 29.1945 15.812 31 21 31C26.1879 31 27.0836 29.1945 27.0836 29.1945C27.0836 29.0596 27.0837 28.9658 27.0839 28.9019C27.0829 28.9234 27.0808 28.8818 27.0771 28.641Z" fill="#F0F0F0"/>
</svg>
