<svg width="42" height="42" viewBox="0 0 42 42" fill="none" xmlns="http://www.w3.org/2000/svg">
<path fill-rule="evenodd" clip-rule="evenodd" d="M23.4138 7.18089L21 3L18.5862 7.18089C10.8949 8.34472 5 14.9839 5 23C5 31.8366 12.1634 39 21 39C29.8366 39 37 31.8366 37 23C37 14.9839 31.1051 8.34472 23.4138 7.18089Z" fill="#3C74DC"/>
<circle cx="21" cy="23" r="14" fill="#3C74DC"/>
<path d="M15.4993 24.4396H17.245C17.396 24.4396 17.5185 24.3171 17.5185 24.1662V22.4078C17.5185 22.2568 17.396 22.1343 17.245 22.1343H16.2695C16.1609 22.1343 16.0626 22.1986 16.019 22.2981L15.2488 24.0565C15.2118 24.141 15.2199 24.2385 15.2704 24.3158C15.3209 24.393 15.407 24.4396 15.4993 24.4396ZM16.4482 22.6813H16.9716V23.8927H15.9176L16.4482 22.6813Z" fill="#F0F0F0"/>
<path d="M27.7266 17.6429H24.3367C24.1857 17.6429 24.0633 17.7654 24.0633 17.9164C24.0633 18.0674 24.1857 18.1898 24.3367 18.1898H27.4531V20.7373H24.5242V19.7331C24.5242 19.6312 24.4675 19.5377 24.377 19.4906C24.2866 19.4435 24.1774 19.4506 24.0939 19.5092L20.8933 21.7516C20.8203 21.8028 20.7768 21.8863 20.7768 21.9755C20.7768 22.0647 20.8203 22.1483 20.8933 22.1994L24.0939 24.4418C24.1407 24.4747 24.1956 24.4913 24.2508 24.4913C24.2939 24.4913 24.3373 24.4811 24.377 24.4605C24.4675 24.4134 24.5242 24.3199 24.5242 24.2179V23.2137H27.4531V26.6776H25.9787C25.9806 26.6442 25.9815 26.6106 25.9815 26.5768C25.9815 25.5951 25.1836 24.7964 24.2028 24.7964C23.222 24.7964 22.4241 25.5951 22.4241 26.5768C22.4241 26.6106 22.425 26.6442 22.4269 26.6776H18.7443V18.1898H21.8608C22.0117 18.1898 22.1342 18.0674 22.1342 17.9164C22.1342 17.7654 22.0117 17.6429 21.8608 17.6429H18.4709C18.3199 17.6429 18.1975 17.7654 18.1975 17.9164V20.9072H15.4685C15.3599 20.9072 15.2616 20.9715 15.218 21.0709L14.023 23.7993C14.0078 23.8339 14 23.8712 14 23.909V26.951C14 27.102 14.1224 27.2244 14.2734 27.2244H15.0816C15.2001 27.868 15.765 28.3571 16.4418 28.3571C17.1186 28.3571 17.6834 27.868 17.802 27.2244H22.5459C22.8053 27.8868 23.4502 28.3571 24.2028 28.3571C24.9554 28.3571 25.6003 27.8868 25.8597 27.2244H27.7266C27.8776 27.2244 28 27.102 28 26.951V17.9164C28 17.7654 27.8776 17.6429 27.7266 17.6429ZM14.5469 23.9662L15.6472 21.4541H18.1975V26.6776H17.7933C17.6577 26.0556 17.1033 25.5885 16.4418 25.5885C15.7804 25.5885 15.2259 26.0556 15.0904 26.6776H14.5469V23.9662ZM16.4418 27.8102C15.9807 27.8102 15.6056 27.4346 15.6056 26.9728C15.6056 26.511 15.9807 26.1354 16.4418 26.1354C16.9029 26.1354 17.2781 26.511 17.2781 26.9728C17.2781 27.4346 16.9029 27.8102 16.4418 27.8102ZM24.2028 27.8102C23.5236 27.8102 22.971 27.2569 22.971 26.5768C22.971 25.8967 23.5236 25.3433 24.2028 25.3433C24.8821 25.3433 25.4347 25.8967 25.4347 26.5768C25.4347 27.2569 24.8821 27.8102 24.2028 27.8102ZM24.2508 22.6668C24.0998 22.6668 23.9773 22.7893 23.9773 22.9403V23.6924L21.5268 21.9755L23.9773 20.2586V21.0107C23.9773 21.1617 24.0998 21.2842 24.2508 21.2842H27.4531V22.6668H24.2508Z" fill="#F0F0F0"/>
<path d="M22.8512 18.021C22.8958 18.128 23.0059 18.1965 23.1217 18.1891C23.2373 18.1818 23.3375 18.0988 23.3677 17.9872C23.3974 17.8774 23.3533 17.7559 23.2593 17.6915C23.1691 17.6297 23.0485 17.6277 22.9562 17.6863C22.846 17.7564 22.8011 17.9006 22.8512 18.021Z" fill="#F0F0F0"/>
</svg>
