<svg width="42" height="42" viewBox="0 0 42 42" fill="none" xmlns="http://www.w3.org/2000/svg">
<path fill-rule="evenodd" clip-rule="evenodd" d="M23.4138 7.18089L21 3L18.5862 7.18089C10.8949 8.34472 5 14.9839 5 23C5 31.8366 12.1634 39 21 39C29.8366 39 37 31.8366 37 23C37 14.9839 31.1051 8.34472 23.4138 7.18089Z" fill="#3C74DC"/>
<circle cx="21" cy="23" r="14" fill="#3C74DC"/>
<path d="M28.5134 26.0417L22.3333 19.8622V17.1218C22.3333 16.6892 22.2373 16.2532 22.048 15.8466L21.9073 15.58C21.7413 15.222 21.394 15 21.0001 15C20.6061 15 20.2588 15.222 20.1001 15.5646L19.9448 15.8612C19.7628 16.2532 19.6668 16.6885 19.6668 17.1218V19.8622L13.4887 26.0404C13.1741 26.355 13.0007 26.773 13.0007 27.2183V27.9996C13.0007 28.1216 13.0674 28.2336 13.1741 28.2916C13.2807 28.3502 13.4114 28.3462 13.514 28.2796L19.7962 24.2539C19.8582 25.2625 19.9421 26.1044 20.0448 27.129L20.1508 28.1789L17.817 29.7208C17.723 29.7834 17.667 29.8874 17.667 29.9994V30.666C17.667 30.7667 17.713 30.8627 17.7916 30.926C17.871 30.99 17.9743 31.014 18.0723 30.992L21 30.3407L23.9278 30.992C23.9518 30.9973 23.9758 31 23.9998 31C24.0751 31 24.1484 30.9747 24.2084 30.9267C24.2871 30.8627 24.3331 30.7667 24.3331 30.666V29.9994C24.3331 29.8874 24.2771 29.7828 24.1831 29.7215L21.8493 28.1816L21.9553 27.1283C22.0579 26.1051 22.1419 25.2638 22.2039 24.2552L28.486 28.2795C28.5894 28.3462 28.7193 28.3495 28.8253 28.2915C28.9327 28.2335 28.9993 28.1216 28.9993 27.9996V27.2183C28.9994 26.773 28.8267 26.355 28.5134 26.0417Z" fill="#F0F0F0"/>
</svg>
