<svg width="42" height="42" viewBox="0 0 42 42" fill="none" xmlns="http://www.w3.org/2000/svg">
<path fill-rule="evenodd" clip-rule="evenodd" d="M23.4138 7.18089L21 3L18.5862 7.18089C10.8949 8.34472 5 14.9839 5 23C5 31.8366 12.1634 39 21 39C29.8366 39 37 31.8366 37 23C37 14.9839 31.1051 8.34472 23.4138 7.18089Z" fill="#3C74DC"/>
<circle cx="21" cy="23" r="14" fill="#3C74DC"/>
<path d="M13.8288 23.9899C13.8288 23.7195 13.5557 23.5002 13.221 23.5002V24.4799C13.5557 24.4796 13.8288 24.26 13.8288 23.9899Z" fill="#F0F0F0"/>
<path d="M26.3878 17.4024H20.5096H18.9861H15.5754V18.2735H16.3749C15.7463 18.6617 14.8497 20.0146 14.8497 20.0146C14.8497 20.0146 13.081 23.4727 14.1973 24.9495C17.0274 24.8766 16.8091 27.5617 16.8091 27.5617H23.7899C23.7 27.3264 23.6493 27.072 23.6493 26.8057C23.6493 25.6309 24.6051 24.6747 25.7806 24.6747C26.9555 24.6747 27.9117 25.6313 27.9117 26.8057C27.9117 26.8997 27.9038 26.992 27.8916 27.0826C28.5614 26.6096 29 25.8308 29 24.9488V20.0143C29 18.5718 27.8309 17.4024 26.3878 17.4024ZM19.9961 26.8057H18.0735C18.0735 26.8057 18.4041 24.1626 16.1505 23.4999C16.1505 23.4999 16.2227 20.0551 17.892 18.7284H19.9961V26.8057ZM24.8994 23.4999C22.6457 24.1626 22.9761 26.8057 22.9761 26.8057H21.0534V18.7288H24.8994V23.4999Z" fill="#F0F0F0"/>
<path d="M15.9146 25.5369C15.1892 24.9148 14.2617 25.0193 14.2225 25.0234L14.2671 25.3885C13.5431 25.5526 13 26.1999 13 26.9726C13 27.8685 13.7297 28.5976 14.6257 28.5976C15.4838 28.5976 16.187 27.9281 16.2456 27.0853C16.2701 27.2365 16.2868 27.3965 16.2929 27.5682L16.7274 27.5549C16.6991 26.6549 16.4254 25.9759 15.9146 25.5369ZM14.6257 28.1624C13.9691 28.1624 13.4355 27.6291 13.4355 26.9726C13.4355 26.3164 13.9691 25.7828 14.6257 25.7828C15.2822 25.7828 15.8148 26.3167 15.8148 26.9726C15.8151 27.6284 15.2822 28.1624 14.6257 28.1624Z" fill="#F0F0F0"/>
<path d="M25.7177 25.0782C24.7652 25.0782 23.9908 25.8529 23.9908 26.8057C23.9908 27.7589 24.7652 28.5336 25.7177 28.5336C26.6701 28.5336 27.4451 27.7589 27.4451 26.8057C27.4451 25.8529 26.6698 25.0782 25.7177 25.0782ZM25.7177 28.098C25.0056 28.098 24.4257 27.5185 24.4257 26.8057C24.4257 26.093 25.0056 25.5138 25.7177 25.5138C26.4307 25.5138 27.0106 26.093 27.0106 26.8057C27.0103 27.5185 26.43 28.098 25.7177 28.098Z" fill="#F0F0F0"/>
</svg>
