<svg width="42" height="42" viewBox="0 0 42 42" fill="none" xmlns="http://www.w3.org/2000/svg">
<path fill-rule="evenodd" clip-rule="evenodd" d="M23.4138 7.18089L21 3L18.5862 7.18089C10.8949 8.34472 5 14.9839 5 23C5 31.8366 12.1634 39 21 39C29.8366 39 37 31.8366 37 23C37 14.9839 31.1051 8.34472 23.4138 7.18089Z" fill="#3C74DC"/>
<circle cx="21" cy="23" r="14" fill="#3C74DC"/>
<path d="M14.875 23.9375V17.375H13V28.625H14.875V26.75H27.125V28.625H29V26.75V23.9375H14.875Z" fill="#F0F0F0"/>
<path d="M17.2188 20.1875C16.4421 20.1875 15.8125 20.8171 15.8125 21.5938V23H18.625V21.5938C18.625 20.8171 17.9954 20.1875 17.2188 20.1875Z" fill="#F0F0F0"/>
<path d="M27.5938 20.1875H20.9688C20.1921 20.1875 19.5625 20.8171 19.5625 21.5938V23H29V21.5938C29 20.8171 28.3704 20.1875 27.5938 20.1875Z" fill="#F0F0F0"/>
</svg>
