<svg width="42" height="42" viewBox="0 0 42 42" fill="none" xmlns="http://www.w3.org/2000/svg">
<path fill-rule="evenodd" clip-rule="evenodd" d="M23.4138 7.18089L21 3L18.5862 7.18089C10.8949 8.34472 5 14.9839 5 23C5 31.8366 12.1634 39 21 39C29.8366 39 37 31.8366 37 23C37 14.9839 31.1051 8.34472 23.4138 7.18089Z" fill="#3C74DC"/>
<circle cx="21" cy="23" r="14" fill="#3C74DC"/>
<path d="M20.8362 21.5814H26.6217C26.6885 21.5814 26.7504 21.5423 26.7792 21.4812C26.9544 21.1107 27.112 20.7278 26.9434 20.4789C26.782 20.2382 26.3881 20.1397 25.582 20.1397C25.0693 20.1397 24.4212 20.1806 23.7364 20.224C22.8852 20.2776 21.9213 20.3388 20.973 20.3388C20.9101 20.3388 20.8522 20.3722 20.8212 20.4266C20.8063 20.4529 20.6737 20.7011 20.6573 21.2927C20.6555 21.3436 20.658 21.387 20.6623 21.4261C20.6723 21.5142 20.7469 21.5814 20.8362 21.5814Z" fill="#F0F0F0"/>
<path d="M28.4477 24.0447L28.5522 24.0084C28.6102 23.9874 28.6532 23.9387 28.6656 23.8779L28.7755 23.3439C28.7883 23.2831 28.7673 23.2198 28.7207 23.1782L28.1401 22.6602C28.1088 22.6324 28.0686 22.6164 28.0274 22.6157L27.3213 22.6015C27.1805 22.481 26.7681 22.1269 26.5821 21.9715C26.5508 21.9452 26.511 21.9309 26.4701 21.9309H21.1251C21.0682 21.9309 21.0153 21.9583 20.9826 22.0049C20.9498 22.0511 20.9417 22.1105 20.9605 22.1642C21.005 22.2893 21.0956 22.396 21.2208 22.5443C21.3545 22.7021 21.5379 22.9183 21.7516 23.26C21.9041 23.5046 21.9326 23.7549 21.8362 24.0056C21.6844 24.3981 21.2649 24.7039 21.0192 24.7736C20.8233 24.8297 20.4883 24.8628 20.1232 24.8628C19.5451 24.8628 18.9438 24.7814 18.4308 24.6331C17.4786 24.3576 17.2973 22.2179 17.3986 21.8478C17.4548 21.6412 17.7051 20.9557 17.9472 20.2929C18.0155 20.1056 18.0745 19.9445 18.1264 19.8016C18.1691 19.8314 18.2 19.8517 18.2022 19.8531C18.2313 19.8716 18.2633 19.8805 18.2957 19.8805C18.3536 19.8805 18.4102 19.8517 18.4432 19.7994C18.4951 19.7177 18.471 19.6099 18.3895 19.558C18.3888 19.5577 18.3259 19.5171 18.2502 19.4588C18.2868 19.3561 18.3177 19.269 18.3433 19.1957C18.3465 19.1961 18.3497 19.1968 18.3526 19.1975C18.3707 19.253 18.4134 19.2992 18.4742 19.3141C18.7273 19.376 18.9638 19.461 18.9662 19.462C18.9858 19.4691 19.0057 19.4727 19.0256 19.4727C19.0974 19.4727 19.1643 19.4282 19.1902 19.3571C19.2229 19.2665 19.176 19.1658 19.0853 19.1335C19.075 19.1299 18.8297 19.0414 18.5574 18.9749C18.5012 18.9607 18.4464 18.9785 18.4052 19.0133C18.4496 18.8782 18.4624 18.8206 18.4624 18.7879C18.4624 18.4619 17.2454 18.0132 16.8664 18C16.7547 18 16.6569 18.0466 16.5834 18.1344C16.3106 18.4597 16.4564 19.376 16.4884 19.5566C16.5016 19.6323 16.5627 19.6899 16.6392 19.6995L17.0975 19.7561C16.9435 20.2456 16.2602 21.7649 16.1147 21.9914C16.0802 22.0412 15.8502 22.0821 15.7396 22.1016C15.5032 22.1436 15.2796 22.183 15.1946 22.353C15.1078 22.5268 15.1146 22.8227 15.1263 22.9852C15.1 22.9844 15.0744 22.9798 15.0481 22.9798C14.2385 22.9798 13.4844 23.4161 13.0801 24.1154C12.9912 24.2694 12.9763 24.4177 13.0353 24.557C13.0972 24.7017 13.2462 24.8258 13.4456 24.9371C13.18 25.2703 13.02 25.6902 13.02 26.1481C13.02 27.2205 13.8922 28.0933 14.9645 28.0933C16.0369 28.0933 16.909 27.2205 16.909 26.1481C16.909 26.0962 16.9051 26.0443 16.9012 25.9924C17.0754 26.0564 17.3023 26.1627 17.3659 26.1961C17.4296 26.2299 17.4822 26.1926 17.4932 26.1403C17.5046 26.0877 17.5263 25.9462 17.5316 25.8452C18.0482 26.2651 18.6025 26.295 19.4185 26.295H23.9272C24.089 27.3118 24.9693 28.0926 26.031 28.0926C27.2072 28.0926 28.1643 27.1362 28.1643 25.9593C28.1643 25.8964 28.16 25.8345 28.155 25.7737C28.7744 25.6863 28.8754 25.5835 28.9237 25.5334C28.9902 25.4658 29.0016 25.3929 28.9998 25.3453C28.986 24.9584 28.6414 24.3551 28.4477 24.0447ZM16.0347 26.1478C16.0347 26.7376 15.5547 27.218 14.9645 27.218C14.3743 27.218 13.8943 26.7376 13.8943 26.1478C13.8943 25.7922 14.0703 25.4793 14.3377 25.2841C14.6591 25.3798 15.0118 25.4687 15.3741 25.5583C15.5608 25.6045 15.7492 25.6521 15.9338 25.6994C15.9971 25.8374 16.0347 25.9874 16.0347 26.1478ZM27.2893 25.9586C27.2893 26.653 26.7243 27.2176 26.0303 27.2176C25.3363 27.2176 24.7716 26.653 24.7716 25.9586C25.6929 25.9519 26.6895 25.895 27.279 25.8569C27.2818 25.8911 27.2893 25.9245 27.2893 25.9586Z" fill="#F0F0F0"/>
</svg>
