<svg width="42" height="42" viewBox="0 0 42 42" fill="none" xmlns="http://www.w3.org/2000/svg">
<path fill-rule="evenodd" clip-rule="evenodd" d="M23.4138 7.18089L21 3L18.5862 7.18089C10.8949 8.34472 5 14.9839 5 23C5 31.8366 12.1634 39 21 39C29.8366 39 37 31.8366 37 23C37 14.9839 31.1051 8.34472 23.4138 7.18089Z" fill="#3C74DC"/>
<circle cx="21" cy="23" r="14" fill="#3C74DC"/>
<g clip-path="url(#clip0)">
<path d="M17.3239 23.1574L20.86 20.6191C20.9401 20.5683 21.0424 20.5683 21.1226 20.6191L24.6762 23.1574V20.129C24.6956 19.7137 24.3747 19.3613 23.9595 19.3418C23.9533 19.3415 23.9471 19.3413 23.9409 19.3412H18.0591C17.6435 19.3504 17.314 19.6948 17.3232 20.1105C17.3234 20.1166 17.3236 20.1228 17.3239 20.129V23.1574Z" fill="#F0F0F0"/>
<path d="M21.8753 16.7154H20.1247V18.8161H21.8753V16.7154Z" fill="#F0F0F0"/>
<path d="M28.7374 27.8839C28.2199 27.8787 27.7152 28.0449 27.302 28.3565C26.9749 28.62 26.5667 28.7622 26.1466 28.7591C25.8553 28.7618 25.5675 28.6958 25.3063 28.5666L26.3917 24.978L24.8687 23.9101L24.7637 23.8576L21.175 21.3544V28.7416H20.9825L20.6499 28.7242V21.3544L15.5558 24.978L16.6762 28.5491C16.4216 28.6971 16.1302 28.77 15.8359 28.7591C15.2757 28.7591 15.0131 28.5666 14.698 28.374C14.2911 28.0487 13.7835 27.8754 13.2626 27.8838C13.1176 27.8838 13 28.0014 13 28.1464C13 28.2914 13.1176 28.409 13.2626 28.409C13.6831 28.403 14.0923 28.5456 14.418 28.8116C14.8258 29.1207 15.3242 29.2869 15.8359 29.2843C16.3568 29.2928 16.8644 29.1194 17.2714 28.7941C17.5864 28.6015 17.849 28.409 18.4092 28.409C18.8297 28.403 19.2389 28.5455 19.5646 28.8116C19.9724 29.1207 20.4708 29.2868 20.9825 29.2842C21.5034 29.2927 22.011 29.1194 22.418 28.7941C22.7331 28.6015 22.9957 28.409 23.5558 28.409C23.9759 28.4059 24.384 28.5481 24.7112 28.8116C25.5644 29.4419 26.7289 29.4419 27.5821 28.8116C27.9092 28.5481 28.3174 28.4058 28.7375 28.409C28.8825 28.409 29.0001 28.2914 29.0001 28.1464C29.0001 28.0013 28.8825 27.8839 28.7374 27.8839Z" fill="#F0F0F0"/>
</g>
<defs>
<clipPath id="clip0">
<rect width="16" height="16" fill="white" transform="translate(13 15)"/>
</clipPath>
</defs>
</svg>
