<svg width="42" height="42" viewBox="0 0 42 42" fill="none" xmlns="http://www.w3.org/2000/svg">
<path fill-rule="evenodd" clip-rule="evenodd" d="M23.4138 7.18089L21 3L18.5862 7.18089C10.8949 8.34472 5 14.9839 5 23C5 31.8366 12.1634 39 21 39C29.8366 39 37 31.8366 37 23C37 14.9839 31.1051 8.34472 23.4138 7.18089Z" fill="#3C74DC"/>
<circle cx="21" cy="23" r="14" fill="#3C74DC"/>
<path d="M22.0202 20.9697C22.0202 20.7808 21.9943 20.598 21.9467 20.4242H30V19.4545H21.3557C21.0781 19.1986 20.7273 19.0183 20.303 18.9455C20.303 18.6832 20.303 18.5 20.303 18.4997V18.4869C20.303 18.4766 20.3232 18.4737 20.323 18.4635C20.3067 17.9002 19.8638 17.4545 19.2967 17.4545H15.0303V19.1514C14.3636 19.4983 13.9495 20.1823 13.9495 20.9697C13.9495 20.9775 13.9551 20.9852 13.9552 20.993C14.081 20.9782 14.2138 20.9697 14.3434 20.9697H22.0202Z" fill="#F0F0F0"/>
<path d="M28 26.5909V26.5744C29.0909 26.3938 29.9394 25.4498 29.9394 24.2976V24.2775C29.9394 22.9943 28.9195 21.9394 27.6364 21.9394H14.3434C13.0603 21.9394 12 22.9943 12 24.2775V24.2976C12 25.4498 12.8485 26.3938 13.9394 26.5743V26.5908C13.9394 26.9488 14.0462 27.2841 14.2142 27.5727C14.5529 28.1543 15.1927 28.5455 15.9141 28.5455H26.0656C26.7871 28.5455 27.4067 28.1543 27.7453 27.5728C27.9134 27.2842 28 26.9489 28 26.5909ZM22.6323 27.5303C22.0881 27.5303 21.6471 27.0893 21.6471 26.5451C21.6471 26.0009 22.0881 25.5599 22.6323 25.5599C23.1765 25.5599 23.6178 26.0009 23.6178 26.5451C23.6177 27.0893 23.1765 27.5303 22.6323 27.5303ZM18.3138 26.5451C18.3138 26.0009 18.7548 25.5599 19.299 25.5599C19.8432 25.5599 20.2844 26.0009 20.2844 26.5451C20.2844 27.0893 19.8432 27.5303 19.299 27.5303C18.7548 27.5303 18.3138 27.0893 18.3138 26.5451ZM14.9804 26.5451C14.9804 26.0009 15.4215 25.5599 15.9656 25.5599C16.5098 25.5599 16.9511 26.0009 16.9511 26.5451C16.9511 27.0893 16.5099 27.5303 15.9656 27.5303C15.4215 27.5303 14.9804 27.0893 14.9804 26.5451ZM25.9656 27.5303C25.4215 27.5303 24.9804 27.0893 24.9804 26.5451C24.9804 26.0009 25.4215 25.5599 25.9656 25.5599C26.5098 25.5599 26.9511 26.0009 26.9511 26.5451C26.951 27.0893 26.5098 27.5303 25.9656 27.5303Z" fill="#F0F0F0"/>
</svg>
