<svg width="42" height="42" viewBox="0 0 42 42" fill="none" xmlns="http://www.w3.org/2000/svg">
<path fill-rule="evenodd" clip-rule="evenodd" d="M23.4138 7.18089L21 3L18.5862 7.18089C10.8949 8.34472 5 14.9839 5 23C5 31.8366 12.1634 39 21 39C29.8366 39 37 31.8366 37 23C37 14.9839 31.1051 8.34472 23.4138 7.18089Z" fill="#3C74DC"/>
<circle cx="21" cy="23" r="14" fill="#3C74DC"/>
<path d="M29.1646 22.2209L27.0216 19.4676C27.013 19.4591 27.0074 19.4506 26.9991 19.4422C26.7897 19.2466 26.5174 19.1319 26.2312 19.1188H24.375C24.2197 19.1188 24.0938 19.2447 24.0938 19.4V23.9H23.3343C22.817 24.5948 22.0068 25.0103 21.1406 25.025H14.9531C14.0937 25.0107 13.2888 24.6013 12.7712 23.9149C12.6494 23.9463 12.5638 24.0555 12.5625 24.1813V26.15C12.5625 26.3053 12.6884 26.4313 12.8438 26.4313H14.25C14.25 27.2079 14.8796 27.8375 15.6562 27.8375C16.4329 27.8375 17.0625 27.2079 17.0625 26.4313H17.625C17.625 27.2079 18.2546 27.8375 19.0312 27.8375C19.8079 27.8375 20.4375 27.2079 20.4375 26.4313H25.2188C25.2188 27.2079 25.8484 27.8375 26.625 27.8375C27.4016 27.8375 28.0312 27.2079 28.0312 26.4313H28.5938C28.967 26.4725 29.3136 26.2327 29.4066 25.8688C29.4275 25.7765 29.4379 25.6821 29.4375 25.5875V22.91C29.438 22.6539 29.3404 22.4073 29.1646 22.2209ZM15.6562 27.275C15.1903 27.275 14.8125 26.8972 14.8125 26.4313C14.8125 25.9653 15.1903 25.5875 15.6562 25.5875C16.1222 25.5875 16.5 25.9653 16.5 26.4313C16.5 26.8972 16.1222 27.275 15.6562 27.275ZM19.0312 27.275C18.5653 27.275 18.1875 26.8972 18.1875 26.4313C18.1875 25.9653 18.5653 25.5875 19.0312 25.5875C19.4972 25.5875 19.875 25.9653 19.875 26.4313C19.875 26.8972 19.4972 27.275 19.0312 27.275ZM26.625 27.275C26.1591 27.275 25.7812 26.8972 25.7812 26.4313C25.7812 25.9653 26.1591 25.5875 26.625 25.5875C27.0909 25.5875 27.4688 25.9653 27.4688 26.4313C27.4688 26.8972 27.0909 27.275 26.625 27.275ZM26.3418 22.2125C26.2676 22.2126 26.1966 22.1832 26.1442 22.1308C26.0918 22.0784 26.0624 22.0074 26.0625 21.9332V19.6813H26.2312C26.362 19.6942 26.4861 19.745 26.5884 19.8275L28.4448 22.2125H26.3418Z" fill="#F0F0F0"/>
<path d="M15.9375 18.8375H16.7813V19.6813H15.9375V18.8375Z" fill="#F0F0F0"/>
<path d="M15.9375 21.65H16.7813V22.4938H15.9375V21.65Z" fill="#F0F0F0"/>
<path d="M15.9375 20.2438H16.7813V21.0875H15.9375V20.2438Z" fill="#F0F0F0"/>
<path d="M12.6468 22.3738C12.6575 22.421 12.6707 22.4667 12.6835 22.5144C12.7028 22.5843 12.7242 22.655 12.7482 22.7213C12.7675 22.7775 12.7874 22.8319 12.8099 22.8855C12.8244 22.9199 12.8398 22.9533 12.8553 22.9868C12.8834 23.0453 12.9115 23.1027 12.9416 23.1587C12.9541 23.1819 12.9664 23.2057 12.9795 23.2283C13.0745 23.3929 13.186 23.5471 13.3123 23.6888L13.325 23.7026C13.388 23.7719 13.4548 23.8378 13.5249 23.9C13.9156 24.2568 14.4241 24.4571 14.9531 24.4625H21.1406C21.6702 24.4574 22.1793 24.2572 22.5702 23.9C22.6419 23.8367 22.71 23.7694 22.7742 23.6984L22.782 23.6899C22.8469 23.6183 22.9078 23.5433 22.9645 23.4649C22.9673 23.4615 22.9695 23.4577 22.9722 23.4539C23.021 23.3856 23.0661 23.3133 23.1094 23.2398C23.1211 23.2197 23.1332 23.1994 23.1448 23.1788C23.1862 23.104 23.2253 23.027 23.2607 22.9478C23.2731 22.9196 23.2837 22.8914 23.2953 22.8633C23.3171 22.8096 23.3378 22.7553 23.3568 22.6998C23.3704 22.6602 23.385 22.6204 23.396 22.5795C23.4862 22.278 23.5318 21.9648 23.5312 21.65C23.5312 20.1004 22.4596 18.8375 21.1406 18.8375C21.1884 18.8375 21.2335 18.8404 21.2812 18.8431V18.275C21.4366 18.275 21.5625 18.1491 21.5625 17.9938C21.5625 17.8384 21.4366 17.7125 21.2812 17.7125H18.75C18.5947 17.7125 18.4688 17.8384 18.4688 17.9938C18.4688 18.1491 18.5947 18.275 18.75 18.275V18.8375H17.3438V23.9H16.7812V23.0562H15.9375V23.9H15.375V18.8375H14.9531C13.6341 18.8375 12.5625 20.1004 12.5625 21.65C12.5635 21.8387 12.5807 22.0268 12.6142 22.2125C12.6237 22.2657 12.6336 22.3202 12.6468 22.3738Z" fill="#F0F0F0"/>
</svg>
