<svg width="42" height="42" viewBox="0 0 42 42" fill="none" xmlns="http://www.w3.org/2000/svg">
<path fill-rule="evenodd" clip-rule="evenodd" d="M23.4138 7.18089L21 3L18.5862 7.18089C10.8949 8.34472 5 14.9839 5 23C5 31.8366 12.1634 39 21 39C29.8366 39 37 31.8366 37 23C37 14.9839 31.1051 8.34472 23.4138 7.18089Z" fill="#3C74DC"/>
<circle cx="21" cy="23" r="14" fill="#3C74DC"/>
<path d="M16.75 22.2812C14.679 22.2812 13 23.9602 13 26.0312C13 28.1023 14.679 29.7812 16.75 29.7812C18.821 29.7812 20.5 28.1023 20.5 26.0312C20.5 23.9602 18.821 22.2812 16.75 22.2812ZM16.75 27.4375C15.9746 27.4375 15.3438 26.8066 15.3438 26.0312C15.3438 25.2559 15.9746 24.625 16.75 24.625C17.5254 24.625 18.1562 25.2559 18.1562 26.0312C18.1562 26.8066 17.5254 27.4375 16.75 27.4375Z" fill="#F0F0F0"/>
<path d="M16.75 25.5625C16.4916 25.5625 16.2812 25.7728 16.2812 26.0312C16.2812 26.2897 16.4916 26.5 16.75 26.5C17.0084 26.5 17.2188 26.2897 17.2188 26.0312C17.2188 25.7728 17.0084 25.5625 16.75 25.5625Z" fill="#F0F0F0"/>
<path d="M25.25 19C25.25 18.7416 25.4603 18.5312 25.7188 18.5312V17.5938C24.9434 17.5938 24.3125 18.2246 24.3125 19V20.4062H25.25V19Z" fill="#F0F0F0"/>
<path d="M22.9409 25.0938C23.5902 23.9738 24.8024 23.2188 26.1875 23.2188C26.8701 23.2188 27.5106 23.4021 28.0625 23.7222V23.2188C28.0625 22.1848 27.2214 21.3438 26.1875 21.3438H19.8557C18.9651 20.7517 17.8972 20.4062 16.75 20.4062C15.4457 20.4062 14.1743 20.8629 13.1703 21.6921L13.7672 22.415C14.6038 21.7242 15.6631 21.3438 16.75 21.3438C19.0137 21.3438 20.9077 22.9568 21.3433 25.0938H22.9409Z" fill="#F0F0F0"/>
<path d="M22.5562 26.0312H21.4375V27.4375H22.4668C22.4475 27.2839 22.4375 27.1274 22.4375 26.9688C22.4375 26.6451 22.4788 26.3311 22.5562 26.0312Z" fill="#F0F0F0"/>
<path d="M26.1875 24.1562C24.6342 24.1562 23.375 25.4154 23.375 26.9688C23.375 28.5221 24.6342 29.7812 26.1875 29.7812C27.7408 29.7812 29 28.5221 29 26.9688C29 25.4154 27.7408 24.1562 26.1875 24.1562ZM26.1875 27.4375C25.9286 27.4375 25.7188 27.2277 25.7188 26.9688C25.7188 26.7098 25.9286 26.5 26.1875 26.5C26.4464 26.5 26.6562 26.7098 26.6562 26.9688C26.6562 27.2277 26.4464 27.4375 26.1875 27.4375Z" fill="#F0F0F0"/>
<path d="M15.3438 19.6217C15.8032 19.5208 16.2747 19.4688 16.75 19.4688C17.9464 19.4688 19.1077 19.792 20.1271 20.4062H21.9531L21.0918 17.125H21.9062V16.1875H14.4062V17.125H15.3438V19.6217Z" fill="#F0F0F0"/>
</svg>
