<svg width="42" height="42" viewBox="0 0 42 42" fill="none" xmlns="http://www.w3.org/2000/svg">
<path fill-rule="evenodd" clip-rule="evenodd" d="M23.4138 7.18089L21 3L18.5862 7.18089C10.8949 8.34472 5 14.9839 5 23C5 31.8366 12.1634 39 21 39C29.8366 39 37 31.8366 37 23C37 14.9839 31.1051 8.34472 23.4138 7.18089Z" fill="#3C74DC"/>
<circle cx="21" cy="23" r="14" fill="#3C74DC"/>
<g clip-path="url(#clip0)">
<path d="M21 15C17.6316 15 14.2632 15.4211 14.2632 18.3684V26.3684C14.2632 27.9937 15.5852 29.3158 17.2105 29.3158L15.9474 30.579V31H17.8253L19.5095 29.3158H22.6842L24.3684 31H26.0526V30.5789L24.7895 29.3158C26.4147 29.3158 27.7369 27.9937 27.7369 26.3684V18.3684C27.7368 15.4211 24.7221 15 21 15ZM17.2105 27.6316C16.5116 27.6316 15.9474 27.0674 15.9474 26.3684C15.9474 25.6695 16.5116 25.1053 17.2105 25.1053C17.9095 25.1053 18.4737 25.6695 18.4737 26.3684C18.4737 27.0674 17.9095 27.6316 17.2105 27.6316ZM20.1579 21.7369H15.9474V18.3684H20.1579V21.7369H20.1579ZM24.7895 27.6316C24.0905 27.6316 23.5263 27.0674 23.5263 26.3684C23.5263 25.6695 24.0905 25.1053 24.7895 25.1053C25.4885 25.1053 26.0526 25.6695 26.0526 26.3684C26.0526 27.0674 25.4884 27.6316 24.7895 27.6316ZM26.0526 21.7369H21.8421V18.3684H26.0526V21.7369Z" fill="#F0F0F0"/>
</g>
<defs>
<clipPath id="clip0">
<rect width="16" height="16" fill="white" transform="translate(13 15)"/>
</clipPath>
</defs>
</svg>
