<svg width="42" height="42" viewBox="0 0 42 42" fill="none" xmlns="http://www.w3.org/2000/svg">
<path fill-rule="evenodd" clip-rule="evenodd" d="M23.4138 7.18089L21 3L18.5862 7.18089C10.8949 8.34472 5 14.9839 5 23C5 31.8366 12.1634 39 21 39C29.8366 39 37 31.8366 37 23C37 14.9839 31.1051 8.34472 23.4138 7.18089Z" fill="#3C74DC"/>
<circle cx="21" cy="23" r="14" fill="#3C74DC"/>
<g clip-path="url(#clip0)">
<path d="M23.013 17.4295H21.5206V16.0412H24.8178C24.9913 16.0412 25.1649 16.2148 25.1649 16.3883C25.1649 16.6659 25.4079 16.9089 25.6855 16.9089C25.9631 16.9089 26.2061 16.6659 26.2061 16.3883C26.2061 15.6247 25.5814 15 24.8178 15H17.1822C16.4187 15 15.7939 15.6247 15.7939 16.3883C15.7939 16.6659 16.0369 16.9089 16.3146 16.9089C16.5922 16.9089 16.8352 16.6659 16.8352 16.3883C16.8352 16.18 16.974 16.0412 17.1822 16.0412H20.4794V17.3948H18.987C17.2864 17.3948 15.9328 18.7831 15.9328 20.449V26.6963C15.9328 27.3905 16.4187 27.9805 17.1128 28.0846L16.1063 29.9935C15.9328 30.3406 16.0716 30.757 16.384 30.9306C16.4881 31 16.5922 31 16.6963 31C16.9393 31 17.1822 30.8612 17.3211 30.6182L17.5293 30.2017H24.4013L24.6095 30.6182C24.7484 30.8612 24.9913 31 25.2343 31C25.3384 31 25.4425 30.9653 25.5467 30.9306C25.8937 30.757 26.0326 30.3406 25.8243 29.9935L24.8178 28.0846C25.4772 27.9805 25.9978 27.3905 25.9978 26.6963V20.4837C26.0673 18.7831 24.679 17.4295 23.013 17.4295ZM23.846 26.8699C23.2907 26.8699 22.8394 26.4187 22.8394 25.8633C22.8394 25.3081 23.2907 24.8568 23.846 24.8568C24.4013 24.8568 24.8525 25.308 24.8525 25.8633C24.8525 26.4187 24.4013 26.8699 23.846 26.8699ZM17.1822 20.8655C17.1822 19.7896 18.0499 18.9566 19.1258 18.9566H22.9436C24.0195 18.9566 24.8872 19.8243 24.8872 20.8655V22.5662C24.8872 22.9479 24.5748 23.2256 24.1931 23.2256H17.8417C17.4599 23.2256 17.1475 22.9479 17.1475 22.5662C17.1822 22.5662 17.1822 20.8655 17.1822 20.8655ZM18.154 24.8221C18.7093 24.8221 19.1605 25.2733 19.1605 25.8287C19.1605 26.3839 18.7093 26.8352 18.154 26.8352C17.5987 26.8352 17.1475 26.3839 17.1475 25.8287C17.1475 25.2733 17.5987 24.8221 18.154 24.8221ZM18.0846 29.2299L18.6399 28.154H23.3254L23.8807 29.2299H18.0846Z" fill="#F0F0F0"/>
</g>
<defs>
<clipPath id="clip0">
<rect width="16" height="16" fill="white" transform="translate(13 15)"/>
</clipPath>
</defs>
</svg>
