<svg width="42" height="42" viewBox="0 0 42 42" fill="none" xmlns="http://www.w3.org/2000/svg">
<path fill-rule="evenodd" clip-rule="evenodd" d="M23.4138 7.18089L21 3L18.5862 7.18089C10.8949 8.34472 5 14.9839 5 23C5 31.8366 12.1634 39 21 39C29.8366 39 37 31.8366 37 23C37 14.9839 31.1051 8.34472 23.4138 7.18089Z" fill="#3C74DC"/>
<circle cx="21" cy="23" r="14" fill="#3C74DC"/>
<g clip-path="url(#clip0)">
<path d="M22.4968 21.9657C22.6089 21.7528 23.0508 21.3237 23.0508 20.5117C23.0508 18.857 21.5063 18.5459 21.4242 18.4878C21.4185 18.4276 21.4038 18.2729 21.3994 18.2258C21.2784 16.9568 20.2249 16 18.9492 16C17.6871 16 16.6369 16.9573 16.5063 18.2266L16.4795 18.487C16.3974 18.5447 14.8203 18.8506 14.8203 20.5117C14.8203 21.3228 15.2625 21.7534 15.3743 21.9657C15.2955 22.0482 14 22.7076 14 24.2305C14 25.5875 15.1312 26.6641 16.4883 26.6641H21.4102C22.7672 26.6641 23.8711 25.5602 23.8711 24.2031C23.8711 22.6713 22.5903 22.0638 22.4968 21.9657Z" fill="#F0F0F0"/>
<path d="M26.6257 21.9657C26.7378 21.7528 27.1797 21.3237 27.1797 20.5117C27.1797 18.857 25.6078 18.5459 25.5257 18.4878C25.52 18.4276 25.5054 18.2729 25.5009 18.2258C25.3799 16.9568 24.3265 16 23.0508 16C22.4969 16 21.99 16.1923 21.5775 16.5065C21.8788 16.9125 22.0972 17.3862 22.1852 17.913C23.6436 18.6055 23.8711 19.814 23.8711 20.5117C23.8711 21.038 23.7345 21.455 23.5815 21.7666C24.3265 22.4395 24.6914 23.251 24.6914 24.2031C24.6914 25.1878 24.2464 26.0621 23.5574 26.6641H25.5117C26.8687 26.6641 28 25.5602 28 24.2031C28 22.6713 26.7192 22.0638 26.6257 21.9657Z" fill="#F0F0F0"/>
<path d="M24.6914 29.1797V27.4844H23.0508V29.1797H19.7695V27.4844H18.1289V29.1797H16.4883V30H26.332V29.1797H24.6914Z" fill="#F0F0F0"/>
</g>
<defs>
<clipPath id="clip0">
<rect width="14" height="14" fill="white" transform="translate(14 16)"/>
</clipPath>
</defs>
</svg>
