<svg width="42" height="42" viewBox="0 0 42 42" fill="none" xmlns="http://www.w3.org/2000/svg">
<path fill-rule="evenodd" clip-rule="evenodd" d="M23.4138 7.18089L21 3L18.5862 7.18089C10.8949 8.34472 5 14.9839 5 23C5 31.8366 12.1634 39 21 39C29.8366 39 37 31.8366 37 23C37 14.9839 31.1051 8.34472 23.4138 7.18089Z" fill="#3C74DC"/>
<circle cx="21" cy="23" r="14" fill="#3C74DC"/>
<path d="M26.2 25.3466C25.4501 25.3466 24.84 25.9568 24.84 26.7066C24.84 27.4565 25.4501 28.0666 26.2 28.0666C26.9497 28.0666 27.56 27.4565 27.56 26.7066C27.56 25.9568 26.9497 25.3466 26.2 25.3466ZM26.2 27.1066C25.9794 27.1066 25.8 26.9272 25.8 26.7066C25.8 26.4859 25.9794 26.3066 26.2 26.3066C26.4206 26.3066 26.6 26.4859 26.6 26.7066C26.6 26.9272 26.4206 27.1066 26.2 27.1066Z" fill="#F0F0F0"/>
<path d="M26.0697 19.6933H23.72C23.5432 19.6933 23.4 19.8367 23.4 20.0133V26.2533C23.4 26.4299 23.5432 26.5733 23.72 26.5733H24.0594C24.2178 26.5733 24.3581 26.4592 24.3786 26.3021C24.5042 25.3398 25.2717 24.7431 26.2002 24.7431C27.1286 24.7431 27.8961 25.3399 28.0217 26.3021C28.0422 26.4592 28.1824 26.5733 28.3409 26.5733H28.68C28.8566 26.5733 29 26.4299 29 26.2533V23.1333C29 23.0581 28.9736 22.9854 28.9254 22.928L26.3152 19.808C26.2544 19.7354 26.1645 19.6933 26.0697 19.6933ZM24.04 22.2533V20.6533C24.04 20.4767 24.1832 20.3333 24.36 20.3333H25.7696C25.8645 20.3333 25.9546 20.3755 26.0153 20.4485L27.3486 22.0485C27.5222 22.2569 27.3741 22.5733 27.1027 22.5733H24.36C24.1832 22.5733 24.04 22.4301 24.04 22.2533Z" fill="#F0F0F0"/>
<path d="M13.32 26.5734H14.1394C14.2978 26.5734 14.4381 26.4593 14.4586 26.3022C14.5842 25.34 15.3517 24.7432 16.2802 24.7432C17.2086 24.7432 17.9762 25.34 18.1018 26.3022C18.1222 26.4594 18.2624 26.5734 18.4209 26.5734H22.44C22.6167 26.5734 22.76 26.4301 22.76 26.2534V18.2534C22.76 18.0768 22.6166 17.9334 22.44 17.9334H13.32C13.1432 17.9334 13 18.0768 13 18.2534V26.2534C13 26.4301 13.1432 26.5734 13.32 26.5734Z" fill="#F0F0F0"/>
<path d="M16.28 25.3466C15.5301 25.3466 14.92 25.9568 14.92 26.7066C14.92 27.4565 15.5301 28.0666 16.28 28.0666C17.0298 28.0666 17.64 27.4565 17.64 26.7066C17.64 25.9568 17.0298 25.3466 16.28 25.3466ZM16.28 27.1066C16.0594 27.1066 15.88 26.9272 15.88 26.7066C15.88 26.4859 16.0594 26.3066 16.28 26.3066C16.5006 26.3066 16.68 26.4859 16.68 26.7066C16.68 26.9272 16.5006 27.1066 16.28 27.1066Z" fill="#F0F0F0"/>
</svg>
