<svg width="42" height="42" viewBox="0 0 42 42" fill="none" xmlns="http://www.w3.org/2000/svg">
<path fill-rule="evenodd" clip-rule="evenodd" d="M23.4138 7.18089L21 3L18.5862 7.18089C10.8949 8.34472 5 14.9839 5 23C5 31.8366 12.1634 39 21 39C29.8366 39 37 31.8366 37 23C37 14.9839 31.1051 8.34472 23.4138 7.18089Z" fill="#3C74DC"/>
<circle cx="21" cy="23" r="14" fill="#3C74DC"/>
<g clip-path="url(#clip0)">
<path d="M28.146 22.0204L26.0392 21.2927L24.8187 19.2204C24.4101 18.5766 24.1319 18.3664 22.9069 18.3664H13.8543C13.3826 18.3665 13 18.749 13 19.2204V23.763V24.5763V25.0239C13 25.4954 13.3826 25.8782 13.8543 25.8782H14.3077C14.364 24.9403 15.1401 24.1965 16.092 24.1965C17.0439 24.1965 17.82 24.9403 17.8764 25.8782H24.0153C24.0492 25.3245 24.3378 24.7939 24.8423 24.4746C25.6773 23.9455 26.7829 24.1933 27.312 25.0282C27.4798 25.2933 27.569 25.5856 27.5865 25.8782H28.1461C28.6178 25.8782 29 25.4955 29 25.0239V22.8747C29 22.4028 28.6501 22.1865 28.146 22.0204ZM24.9402 21.5255H21.0471C20.9886 21.5255 20.9417 21.4786 20.9417 21.4205V19.3532C20.9417 19.2952 20.9886 19.2483 21.0471 19.2483H23.8351C23.8928 19.2483 23.9788 19.2697 24.0214 19.3532L25.045 21.4204C25.045 21.4786 24.9982 21.5255 24.9402 21.5255ZM28.8497 24.1653C28.8497 24.323 28.7219 24.4509 28.5642 24.4509H27.6838C27.5261 24.4509 27.3982 24.323 27.3982 24.1653V23.5227C27.3982 23.365 27.5261 23.2373 27.6838 23.2373H28.5642C28.7219 23.2373 28.8497 23.3651 28.8497 23.5227V24.1653ZM16.0706 24.3867C15.1753 24.3867 14.447 25.1152 14.447 26.0103C14.447 26.9055 15.1753 27.6335 16.0706 27.6335C16.9657 27.6335 17.6938 26.9055 17.6938 26.0103C17.6938 25.1152 16.9657 24.3867 16.0706 24.3867ZM16.0706 27.1184C15.4591 27.1184 14.9624 26.6213 14.9624 26.0105C14.9624 25.3996 15.4594 24.9025 16.0706 24.9025C16.6816 24.9025 17.1784 25.3996 17.1784 26.0105C17.1784 26.6213 16.6816 27.1184 16.0706 27.1184ZM25.8072 24.3867C24.912 24.3867 24.1836 25.1152 24.1836 26.0103C24.1836 26.9055 24.912 27.6335 25.8072 27.6335C26.7024 27.6335 27.4307 26.9055 27.4307 26.0103C27.4307 25.1152 26.7024 24.3867 25.8072 24.3867ZM25.8072 27.1184C25.196 27.1184 24.699 26.6213 24.699 26.0105C24.699 25.3996 25.1962 24.9025 25.8072 24.9025C26.4185 24.9025 26.9153 25.3996 26.9153 26.0105C26.9152 26.6213 26.4183 27.1184 25.8072 27.1184Z" fill="#F0F0F0"/>
</g>
<defs>
<clipPath id="clip0">
<rect width="16" height="16" fill="white" transform="translate(13 15)"/>
</clipPath>
</defs>
</svg>
