<svg width="42" height="42" viewBox="0 0 42 42" fill="none" xmlns="http://www.w3.org/2000/svg">
<path fill-rule="evenodd" clip-rule="evenodd" d="M23.4138 7.18089L21 3L18.5862 7.18089C10.8949 8.34472 5 14.9839 5 23C5 31.8366 12.1634 39 21 39C29.8366 39 37 31.8366 37 23C37 14.9839 31.1051 8.34472 23.4138 7.18089Z" fill="#3C74DC"/>
<circle cx="21" cy="23" r="14" fill="#3C74DC"/>
<g clip-path="url(#clip0)">
<path d="M28.79 20.426L21.29 15.0927C21.1167 14.9694 20.884 14.9694 20.7107 15.0927L13.2107 20.426C13.0787 20.5194 13 20.6714 13 20.8334V23.1667C13 23.354 13.1047 23.5254 13.2707 23.6114C13.4373 23.6967 13.6367 23.6827 13.7893 23.5747L14.3333 23.1874V30.3334C14.3333 30.7014 14.632 31 15 31H16.3333V23H25.6667V31H27C27.368 31 27.6667 30.7014 27.6667 30.3334V23.1874L28.21 23.574C28.2967 23.6354 28.398 23.6667 28.5 23.6667C28.5787 23.6667 28.6567 23.648 28.7293 23.6114C28.8953 23.5254 29 23.354 29 23.1667V20.8334C29 20.6714 28.9213 20.5194 28.79 20.426Z" fill="#F0F0F0"/>
<path d="M17.3333 29.3333H24.6667V31H17.3333V29.3333Z" fill="#F0F0F0"/>
<path d="M17.3333 26.6667H24.6667V28.3333H17.3333V26.6667Z" fill="#F0F0F0"/>
<path d="M17.3333 24H24.6667V25.6667H17.3333V24Z" fill="#F0F0F0"/>
</g>
<defs>
<clipPath id="clip0">
<rect width="16" height="16" fill="white" transform="translate(13 15)"/>
</clipPath>
</defs>
</svg>
