<svg width="28" height="28" viewBox="0 0 28 28" fill="none" xmlns="http://www.w3.org/2000/svg">
<path d="M14.3097 13.3689C16.6207 13.3689 18.4941 11.4954 18.4941 9.18444C18.4941 6.87344 16.6207 5 14.3097 5C11.9987 5 10.1252 6.87344 10.1252 9.18444C10.1252 11.4954 11.9987 13.3689 14.3097 13.3689Z" stroke="#3C74DC" stroke-width="2"/>
<path d="M18.4942 15.0426H18.7888C19.4006 15.0428 19.9913 15.2664 20.4499 15.6713C20.9085 16.0763 21.2035 16.6348 21.2794 17.2419L21.6066 19.8564C21.636 20.0919 21.615 20.331 21.545 20.5578C21.4749 20.7846 21.3575 20.9939 21.2004 21.1718C21.0433 21.3497 20.8501 21.4922 20.6337 21.5898C20.4174 21.6873 20.1827 21.7378 19.9454 21.7377H8.67414C8.43678 21.7378 8.20213 21.6873 7.98576 21.5898C7.76938 21.4922 7.57623 21.3497 7.41912 21.1718C7.26202 20.9939 7.14455 20.7846 7.07452 20.5578C7.00448 20.331 6.98349 20.0919 7.01292 19.8564L7.3393 17.2419C7.41521 16.6346 7.71039 16.0758 8.16936 15.6708C8.62832 15.2658 9.21944 15.0424 9.83156 15.0426H10.1253" stroke="#3C74DC" stroke-width="2" stroke-linecap="round" stroke-linejoin="round"/>
</svg>
