<svg width="22" height="22" viewBox="0 0 22 22" fill="none" xmlns="http://www.w3.org/2000/svg">
<g clip-path="url(#clip0)">
<path d="M27.0961 15.6793L23.216 11.8035C22.7004 11.2879 22 11 21.2695 11H17.8621C17.1016 11 16.4871 11.6145 16.4871 12.375V15.7781C16.4871 16.5086 16.775 17.2047 17.2906 17.7203L21.1707 21.5961C21.7078 22.1332 22.5801 22.1332 23.1172 21.5961L27.0918 17.6215C27.6332 17.0844 27.6332 16.2164 27.0961 15.6793ZM19.2414 14.777C18.6699 14.777 18.2102 14.3172 18.2102 13.7457C18.2102 13.1742 18.6699 12.7145 19.2414 12.7145C19.8129 12.7145 20.2727 13.1742 20.2727 13.7457C20.2727 14.3129 19.8129 14.777 19.2414 14.777ZM9.625 10.9957C12.6629 10.9957 15.125 8.53359 15.125 5.4957C15.125 2.46211 12.6629 0 9.625 0C6.58711 0 4.125 2.46211 4.125 5.5C4.125 8.53359 6.58711 10.9957 9.625 10.9957ZM15.1164 15.7738V12.6328C14.5922 12.4781 14.0465 12.3664 13.475 12.3664H12.7574C11.8035 12.8047 10.7422 13.0539 9.625 13.0539C8.50781 13.0539 7.45078 12.8047 6.49258 12.3664H5.775C2.58672 12.3707 0 14.9574 0 18.1457V19.9332C0 21.0719 0.923828 21.9957 2.0625 21.9957H17.1875C17.8535 21.9957 18.4379 21.6734 18.816 21.1836L16.3238 18.6914C15.5461 17.9137 15.1164 16.8781 15.1164 15.7738Z" fill="white"/>
</g>
<defs>
<clipPath id="clip0">
<rect width="22" height="22" fill="white"/>
</clipPath>
</defs>
</svg>
