<svg width="28" height="28" viewBox="0 0 28 28" fill="none" xmlns="http://www.w3.org/2000/svg">
<path d="M13.6724 10C13.4941 10 13.323 10.0531 13.1969 10.1478C13.0708 10.2424 13 10.3707 13 10.5045V14.9035L16.9671 16.9214C17.116 16.9923 17.2961 17.0165 17.4686 16.9888C17.6411 16.961 17.7921 16.8835 17.8891 16.773C17.9862 16.6625 18.0214 16.5278 17.9873 16.3979C17.9532 16.2681 17.8524 16.1535 17.7067 16.0789L14.3448 14.3687V10.5045C14.3448 10.3707 14.2739 10.2424 14.1478 10.1478C14.0217 10.0531 13.8507 10 13.6724 10Z" fill="#3C74DC"/>
<path d="M14.0008 4C15.7862 4.00625 17.5376 4.48776 19.0753 5.39505C20.6129 6.30234 21.8813 7.60269 22.7501 9.1625V6C22.7501 5.83424 22.8159 5.67527 22.9331 5.55806C23.0503 5.44085 23.2093 5.375 23.3751 5.375C23.5408 5.375 23.6998 5.44085 23.817 5.55806C23.9342 5.67527 24 5.83424 24 6V11.5H18.5005C18.3347 11.5 18.1758 11.4342 18.0586 11.3169C17.9414 11.1997 17.8755 11.0408 17.8755 10.875C17.8755 10.7092 17.9414 10.5503 18.0586 10.4331C18.1758 10.3158 18.3347 10.25 18.5005 10.25H21.9064C21.1182 8.58637 19.8254 7.21374 18.212 6.32746C16.5986 5.44117 14.7468 5.08637 12.9201 5.31356C11.0934 5.54074 9.38486 6.33834 8.03766 7.59284C6.69045 8.84734 5.77321 10.4948 5.41645 12.3009C5.0597 14.1069 5.2816 15.9794 6.0506 17.652C6.81959 19.3246 8.09649 20.712 9.69958 21.6169C11.3027 22.5217 13.1503 22.8978 14.9795 22.6916C16.8087 22.4855 18.5263 21.7076 19.8878 20.4688C19.9486 20.4133 20.0196 20.3705 20.0969 20.3425C20.1742 20.3146 20.2563 20.3021 20.3384 20.3059C20.4205 20.3097 20.5011 20.3296 20.5755 20.3645C20.6499 20.3994 20.7168 20.4486 20.7721 20.5094C20.8275 20.5701 20.8704 20.6412 20.8984 20.7185C20.9263 20.7958 20.9388 20.8779 20.935 20.96C20.9312 21.0421 20.9113 21.1227 20.8764 21.1971C20.8415 21.2715 20.7923 21.3383 20.7315 21.3937C19.5303 22.4877 18.0806 23.2725 16.5079 23.6801C14.9352 24.0878 13.2868 24.1061 11.7055 23.7334C10.1241 23.3606 8.65739 22.6082 7.43221 21.5411C6.20703 20.474 5.2603 19.1244 4.67393 17.6091C4.08757 16.0938 3.87925 14.4584 4.06698 12.8445C4.25471 11.2306 4.83285 9.6867 5.75136 8.34647C6.66988 7.00625 7.9011 5.91004 9.3385 5.15271C10.7759 4.39537 12.3762 3.99973 14.0008 4Z" fill="#3C74DC"/>
</svg>
