<svg width="28" height="28" viewBox="0 0 28 28" fill="none" xmlns="http://www.w3.org/2000/svg">
<path fill-rule="evenodd" clip-rule="evenodd" d="M21 8.91667L21 7.75L15.1667 7.75L15.1667 8.91667L21 8.91667ZM15.1667 16.0333L15.1667 12.3L15.8083 11.8333L16.975 11.8333L17.5 12.3L17.5 16.0333L16.9167 16.5L15.75 16.5L15.1667 16.0333ZM11.6667 10.2L11.6667 6.46667L12.25 6L13.4167 6L14 6.46667L14 10.2L13.4167 10.6667L12.25 10.6667L11.6667 10.2ZM21 14.75L21 13.5833L18.6667 13.5833L18.6667 14.75L21 14.75ZM14 13.5833L14 14.75L7 14.75L7 13.5833L14 13.5833ZM10.5 8.91667L10.5 7.75L7 7.75L7 8.91667L10.5 8.91667ZM10.5 18.1333L10.5 21.855L11.0833 22.3217L12.1917 22.3217L12.775 21.855L12.775 18.1333L12.1917 17.6667L11.0833 17.6667L10.5 18.1333ZM21 20.5833L21 19.4167L14 19.4167L14 20.5833L21 20.5833ZM9.33333 19.4167L9.33333 20.5833L7 20.5833L7 19.4167L9.33333 19.4167Z" fill="#3C74DC"/>
</svg>
