<svg width="28" height="28" viewBox="0 0 28 28" fill="none" xmlns="http://www.w3.org/2000/svg">
<path d="M14.5361 13C16.4845 13 18 11.4124 18 9.46392C18 7.51546 16.4124 6 14.4639 6C12.5155 6 11 7.58763 11 9.46392C11 11.4124 12.5876 13 14.5361 13ZM14.4639 7.4433C14.5361 7.4433 14.5361 7.4433 14.4639 7.4433C15.6186 7.4433 16.5567 8.38144 16.5567 9.53608C16.5567 10.6907 15.6186 11.5567 14.4639 11.5567C13.3093 11.5567 12.4433 10.6186 12.4433 9.53608C12.4433 8.38144 13.3814 7.4433 14.4639 7.4433Z" fill="#3C74DC"/>
<path d="M25.7667 12.8561C24.2889 11.5978 22.3444 10.9315 20.3222 11.0056H19.7C19.5444 11.5978 19.3111 12.1159 19 12.56C19.4667 12.486 19.8556 12.486 20.3222 12.486C21.8 12.412 23.2778 12.8561 24.4444 13.6704V19H26V13.0782L25.7667 12.8561Z" fill="#3C74DC"/>
<path d="M19.0244 6.35955C19.3902 5.55056 20.4146 5.14607 21.3659 5.48315C22.2439 5.82022 22.6829 6.76404 22.3171 7.64045C22.0244 8.24719 21.3659 8.65169 20.7073 8.65169C20.561 8.65169 20.3415 8.65169 20.1951 8.58427C20.2683 8.92135 20.2683 9.25843 20.2683 9.52809V9.93258C20.4146 9.93258 20.561 10 20.7073 10C22.5366 10 24 8.65169 24 7.03371C24 5.34831 22.5366 4 20.7805 4C19.6098 4 18.5854 4.53933 18 5.48315C18.3659 5.68539 18.7317 5.95506 19.0244 6.35955Z" fill="#3C74DC"/>
<path d="M11 12.5746C10.6889 12.1263 10.4556 11.6033 10.3 11.0056H9.67778C7.65556 10.9309 5.71111 11.6033 4.23333 12.7988L4 13.0229V19H5.55556V13.6206C6.8 12.7988 8.2 12.3505 9.67778 12.4252C10.1444 12.4252 10.6111 12.4999 11 12.5746Z" fill="#3C74DC"/>
<path d="M9.23838 10C9.38373 10 9.52907 10 9.67442 9.93225V9.52575C9.67442 9.18699 9.67442 8.84824 9.7471 8.57724C9.60175 8.64499 9.38373 8.64499 9.23838 8.64499C8.29361 8.64499 7.4942 7.89973 7.4942 7.01898C7.4942 6.13822 8.29361 5.39296 9.23838 5.39296C9.96512 5.39296 10.6192 5.79947 10.9099 6.40922C11.2006 6.07047 11.6366 5.73172 12 5.46071C11.0552 4.03795 9.09303 3.5637 7.56687 4.44446C6.04071 5.32521 5.53199 7.15448 6.47676 8.57724C7.05815 9.458 8.07559 10 9.23838 10Z" fill="#3C74DC"/>
<path d="M20.9259 17.5642L20.7778 17.3566C19.2963 15.8341 17.2222 14.9345 15 15.0037C12.7778 14.9345 10.6296 15.8341 9.14815 17.3566L9 17.5642V22.8236C9 23.4464 9.51852 24 10.2593 24H19.7407C20.4074 24 21 23.4464 21 22.8236V17.5642H20.9259ZM19.4444 22.616H10.4815V18.0486C11.6667 16.9414 13.2963 16.3878 15 16.3878C16.6296 16.3186 18.2593 16.9414 19.4444 18.0486V22.616Z" fill="#3C74DC"/>
</svg>
