<svg width="28" height="28" viewBox="0 0 28 28" fill="none" xmlns="http://www.w3.org/2000/svg">
<path fill-rule="evenodd" clip-rule="evenodd" d="M13.5833 6C15.5946 6 17.5234 6.79896 18.9456 8.22111C20.3677 9.64326 21.1667 11.5721 21.1667 13.5833C21.1667 15.5946 20.3677 17.5234 18.9456 18.9456C17.5234 20.3677 15.5946 21.1667 13.5833 21.1667C11.5721 21.1667 9.64326 20.3677 8.22111 18.9456C6.79896 17.5234 6 15.5946 6 13.5833C6 11.5721 6.79896 9.64326 8.22111 8.22111C9.64326 6.79896 11.5721 6 13.5833 6ZM19.293 10.6667C18.5448 9.21184 17.2715 8.09582 15.7312 7.54467C16.2492 8.52467 16.6237 9.57467 16.843 10.6667H19.293ZM19.972 14.1608C19.9907 13.9689 20 13.7762 20 13.5833C19.9988 12.9913 19.9152 12.4023 19.7515 11.8333H17.0192C17.0565 12.2195 17.0833 12.608 17.0833 13C17.0809 13.7838 17.0004 14.5655 16.843 15.3333H19.7515C19.8623 14.9495 19.9358 14.5575 19.9732 14.1608H19.972ZM15.8478 14.1608L15.8548 14.1013C15.8946 13.7356 15.9153 13.3679 15.9167 13C15.9088 12.6098 15.8792 12.2203 15.828 11.8333H11.3387C11.287 12.2202 11.2574 12.6097 11.25 13C11.2529 13.7855 11.344 14.5682 11.5218 15.3333H15.6448C15.7347 14.946 15.8023 14.5552 15.8478 14.1608ZM15.6238 10.6667C15.349 9.43274 14.8529 8.2588 14.1597 7.20167C13.9683 7.18533 13.777 7.16667 13.5833 7.16667C13.4618 7.16726 13.3404 7.1731 13.2193 7.18417L13.007 7.20167L13 7.21333C12.3104 8.26737 11.8168 9.43724 11.5428 10.6667H15.6238ZM10.3237 10.6667C10.5475 9.57542 10.927 8.52203 11.4507 7.53883C9.90365 8.0881 8.62437 9.20674 7.87367 10.6667H10.3237ZM7.41517 11.8333C7.25171 12.4023 7.16807 12.9913 7.16667 13.5833C7.16807 14.1754 7.25171 14.7643 7.41517 15.3333H10.3237C10.1655 14.5656 10.085 13.7839 10.0833 13C10.0833 12.608 10.1102 12.2195 10.1475 11.8333H7.41517ZM10.6282 16.5H7.87483C8.31585 17.3614 8.94551 18.1123 9.71693 18.6967C10.4883 19.2811 11.3817 19.6839 12.3303 19.8752C11.5837 18.8499 11.0088 17.7099 10.6282 16.5ZM13.5833 19.5847C14.3293 18.662 14.9125 17.6188 15.3077 16.5H11.859C12.2542 17.6188 12.8373 18.662 13.5833 19.5847ZM16.5385 16.5C16.1579 17.7099 15.583 18.8499 14.8363 19.8752C15.785 19.6837 16.6782 19.2808 17.4496 18.6965C18.221 18.1121 18.8507 17.3613 19.2918 16.5H16.5385Z" fill="#3C74DC"/>
</svg>
