<svg width="24" height="24" viewBox="0 0 24 24" fill="none" xmlns="http://www.w3.org/2000/svg">
<path d="M19.6108 6.92624L17.0448 4.36024C16.9309 4.24605 16.7956 4.15545 16.6467 4.09364C16.4977 4.03182 16.338 4 16.1768 4C16.0155 4 15.8558 4.03182 15.7069 4.09364C15.5579 4.15545 15.4226 4.24605 15.3088 4.36024L4.86964 14.8603L4.02446 18.5227C3.98845 18.7003 3.99224 18.8836 4.03555 19.0595C4.07885 19.2353 4.1606 19.3995 4.27491 19.54C4.38922 19.6805 4.53326 19.794 4.69666 19.8722C4.86005 19.9504 5.03875 19.9914 5.2199 19.9923C5.31352 20.0026 5.408 20.0026 5.50162 19.9923L9.19453 19.1775L19.6108 8.66229C19.725 8.54841 19.8156 8.41312 19.8774 8.26417C19.9392 8.11522 19.971 7.95553 19.971 7.79426C19.971 7.63299 19.9392 7.47331 19.8774 7.32436C19.8156 7.17541 19.725 7.04012 19.6108 6.92624ZM8.40265 17.7689L5.61584 18.3857L6.26305 15.6217L14.1209 7.71051L16.2682 9.85772L8.40265 17.7689ZM17.1286 8.99731L14.9813 6.8501L16.1616 5.64705L18.324 7.80949L17.1286 8.99731Z" fill="#3C74DC"/>
</svg>
