<svg width="373" height="364" viewBox="0 0 373 364" fill="none" xmlns="http://www.w3.org/2000/svg">
<ellipse cx="186.763" cy="215.19" rx="173.509" ry="71.0718" transform="rotate(-30 186.763 215.19)" fill="#F5F5F5"/>
<path d="M292.919 153.138C290.178 154.721 290.178 157.289 292.919 158.87C295.66 160.453 300.103 160.453 302.844 158.87C305.585 157.289 305.585 154.721 302.844 153.138C300.103 151.557 295.66 151.557 292.919 153.138Z" fill="#00807A"/>
<path d="M304.898 3.91064H290.863V156.138H304.898V3.91064Z" fill="#00807A"/>
<path d="M292.919 1.18749C290.178 2.77082 290.178 5.33555 292.919 6.91887C295.66 8.49949 300.103 8.49949 302.844 6.91887C305.585 5.33555 305.585 2.77082 302.844 1.18749C300.103 -0.395832 295.66 -0.395832 292.919 1.18749Z" fill="#00A19A"/>
<path d="M280.646 37.8162C280.998 37.8162 281.353 37.7267 281.681 37.5369L293.556 30.6831C294.546 30.1111 294.888 28.8422 294.315 27.8499C293.741 26.8603 292.475 26.5215 291.482 27.0935L279.607 33.9473C278.615 34.5194 278.279 35.7882 278.851 36.7805C279.233 37.4448 279.93 37.8162 280.646 37.8162Z" fill="#006964"/>
<path d="M280.646 95.3579C280.998 95.3579 281.353 95.2683 281.681 95.0813L293.556 88.2248C294.546 87.6527 294.888 86.3838 294.315 85.3943C293.741 84.402 292.475 84.0604 291.482 84.6351L279.607 91.4918C278.615 92.0638 278.279 93.3299 278.851 94.3222C279.233 94.9864 279.93 95.3579 280.646 95.3579Z" fill="#006964"/>
<path d="M280.646 152.341C280.998 152.341 281.353 152.249 281.681 152.062L293.556 145.205C294.546 144.633 294.888 143.364 294.315 142.375C293.741 141.385 292.475 141.044 291.482 141.616L279.607 148.472C278.615 149.044 278.279 150.313 278.851 151.303C279.233 151.967 279.93 152.341 280.646 152.341Z" fill="#006964"/>
<path d="M111.257 248.602L275.055 154.036L275.053 28.4738L111.254 123.04L111.257 248.602ZM289.124 17.2523L283.43 158.87L108.573 266.398L102.88 263.11L102.877 118.203L283.43 13.9663L289.124 17.2523Z" fill="#00807A"/>
<path d="M114.461 134.522C114.7 134.522 114.933 134.398 115.061 134.175L122.576 121.145C122.766 120.815 122.652 120.392 122.321 120.202C121.99 120.012 121.57 120.126 121.378 120.454L113.862 133.484C113.673 133.815 113.786 134.238 114.117 134.43C114.226 134.492 114.345 134.522 114.461 134.522Z" fill="#006B66"/>
<path d="M114.461 143.544C114.699 143.544 114.932 143.422 115.06 143.2L130.364 116.677C130.557 116.346 130.443 115.923 130.112 115.733C129.782 115.543 129.359 115.655 129.169 115.985L113.864 142.509C113.672 142.839 113.786 143.262 114.116 143.452C114.225 143.517 114.344 143.544 114.461 143.544Z" fill="#006B66"/>
<path d="M114.461 152.05C114.699 152.05 114.932 151.928 115.06 151.706L138.178 111.648C138.368 111.317 138.257 110.897 137.926 110.705C137.595 110.515 137.172 110.629 136.982 110.957L113.864 151.014C113.672 151.345 113.786 151.768 114.116 151.958C114.225 152.023 114.344 152.05 114.461 152.05Z" fill="#006B66"/>
<path d="M114.461 161.091C114.699 161.091 114.932 160.966 115.06 160.744L145.967 107.179C146.16 106.848 146.046 106.428 145.715 106.235C145.384 106.046 144.961 106.159 144.772 106.49L113.864 160.052C113.672 160.383 113.786 160.806 114.116 160.996C114.225 161.061 114.344 161.091 114.461 161.091Z" fill="#006B66"/>
<path d="M114.461 170.157C114.699 170.157 114.932 170.033 115.06 169.81L153.781 102.711C153.973 102.381 153.859 101.958 153.529 101.768C153.198 101.576 152.778 101.689 152.585 102.02L113.864 169.119C113.672 169.45 113.786 169.873 114.116 170.065C114.225 170.128 114.344 170.157 114.461 170.157Z" fill="#006B66"/>
<path d="M114.461 179.208C114.699 179.208 114.932 179.084 115.06 178.861L161.573 98.2417C161.762 97.9109 161.651 97.4907 161.321 97.2982C160.99 97.1057 160.564 97.2222 160.377 97.5503L113.864 178.17C113.672 178.501 113.786 178.924 114.116 179.116C114.225 179.178 114.344 179.208 114.461 179.208Z" fill="#006B66"/>
<path d="M114.461 188.238C114.699 188.238 114.932 188.114 115.06 187.891L169.376 93.7731C169.563 93.4423 169.454 93.0193 169.123 92.8295C168.79 92.637 168.37 92.7509 168.18 93.0817L113.864 187.2C113.672 187.531 113.786 187.954 114.116 188.144C114.225 188.209 114.344 188.238 114.461 188.238Z" fill="#006B66"/>
<path d="M114.461 197.297C114.699 197.297 114.932 197.173 115.06 196.95L177.178 89.3031C177.368 88.9723 177.251 88.5521 176.923 88.3596C176.593 88.1671 176.172 88.2837 175.983 88.6144L113.864 196.259C113.672 196.59 113.786 197.013 114.116 197.205C114.225 197.267 114.344 197.297 114.461 197.297Z" fill="#006B66"/>
<path d="M114.461 206.355C114.699 206.355 114.932 206.23 115.06 206.008L184.976 84.8346C185.171 84.5038 185.057 84.0808 184.726 83.891C184.395 83.6986 183.975 83.8125 183.783 84.1432L113.864 205.316C113.672 205.647 113.786 206.07 114.116 206.263C114.225 206.325 114.344 206.355 114.461 206.355Z" fill="#006B66"/>
<path d="M114.461 215.393C114.699 215.393 114.932 215.268 115.06 215.046L192.77 80.3654C192.96 80.0346 192.849 79.6116 192.518 79.4218C192.187 79.2293 191.764 79.3432 191.575 79.674L113.864 214.354C113.672 214.685 113.786 215.108 114.116 215.298C114.225 215.363 114.344 215.393 114.461 215.393Z" fill="#006B66"/>
<path d="M114.461 224.444C114.699 224.444 114.932 224.319 115.06 224.097L200.584 75.8961C200.774 75.5654 200.663 75.1424 200.332 74.9526C200.001 74.7601 199.578 74.874 199.388 75.2048L113.864 223.406C113.672 223.736 113.786 224.159 114.116 224.349C114.225 224.414 114.344 224.444 114.461 224.444Z" fill="#006B66"/>
<path d="M114.463 233.48C114.702 233.48 114.932 233.358 115.06 233.135L208.373 71.4273C208.565 71.0965 208.452 70.6763 208.121 70.4838C207.79 70.2913 207.367 70.4052 207.177 70.736L113.864 232.444C113.672 232.775 113.786 233.198 114.116 233.387C114.228 233.45 114.344 233.48 114.463 233.48Z" fill="#006B66"/>
<path d="M114.463 242.56C114.702 242.56 114.932 242.435 115.06 242.213L216.187 66.9568C216.379 66.6261 216.265 66.2032 215.934 66.0134C215.604 65.8236 215.181 65.9348 214.991 66.2656L113.864 241.521C113.672 241.852 113.786 242.275 114.116 242.467C114.228 242.53 114.344 242.56 114.463 242.56Z" fill="#006B66"/>
<path d="M114.74 251.127C114.979 251.127 115.212 251.002 115.339 250.78L223.992 62.4888C224.185 62.1581 224.071 61.7351 223.74 61.5454C223.409 61.3529 222.986 61.4667 222.796 61.7975L114.143 250.091C113.951 250.422 114.065 250.842 114.396 251.035C114.504 251.097 114.623 251.127 114.74 251.127Z" fill="#006B66"/>
<path d="M122.285 246.658C122.523 246.658 122.754 246.533 122.881 246.311L231.537 58.0197C231.727 57.6889 231.613 57.2659 231.285 57.0761C230.954 56.8836 230.531 56.9975 230.341 57.3283L121.685 245.622C121.493 245.953 121.607 246.373 121.938 246.566C122.046 246.628 122.165 246.658 122.285 246.658Z" fill="#006B66"/>
<path d="M130.103 242.187C130.341 242.187 130.574 242.065 130.702 241.842L239.355 53.5486C239.547 53.2178 239.433 52.7976 239.103 52.6051C238.772 52.4153 238.349 52.5291 238.159 52.8572L129.506 241.151C129.314 241.482 129.428 241.905 129.758 242.094C129.867 242.16 129.986 242.187 130.103 242.187Z" fill="#006B66"/>
<path d="M137.926 237.719C138.164 237.719 138.395 237.595 138.522 237.375L247.178 49.0812C247.37 48.7504 247.256 48.3274 246.926 48.1376C246.598 47.9451 246.175 48.0591 245.982 48.3898L137.326 236.684C137.137 237.014 137.248 237.437 137.579 237.627C137.69 237.689 137.806 237.719 137.926 237.719Z" fill="#006B66"/>
<path d="M145.745 233.25C145.983 233.25 146.217 233.125 146.344 232.906L255 44.6119C255.189 44.2812 255.078 43.8582 254.748 43.6684C254.414 43.4759 253.994 43.5898 253.804 43.9206L145.148 232.214C144.956 232.545 145.07 232.965 145.401 233.158C145.509 233.22 145.628 233.25 145.745 233.25Z" fill="#006B66"/>
<path d="M153.566 228.781C153.807 228.781 154.038 228.656 154.165 228.436L262.821 40.1427C263.013 39.8119 262.9 39.3889 262.569 39.1992C262.238 39.0067 261.815 39.1206 261.625 39.4513L152.97 227.745C152.777 228.076 152.891 228.499 153.222 228.689C153.33 228.751 153.45 228.781 153.566 228.781Z" fill="#006B66"/>
<path d="M161.388 223.753C161.627 223.753 161.86 223.631 161.985 223.409L270.641 35.1148C270.833 34.784 270.719 34.3611 270.388 34.1713C270.058 33.9788 269.637 34.0927 269.445 34.4235L160.789 222.717C160.599 223.048 160.713 223.471 161.041 223.661C161.152 223.723 161.272 223.753 161.388 223.753Z" fill="#006B66"/>
<path d="M169.208 219.282C169.447 219.282 169.68 219.158 169.805 218.938L278.46 30.6444C278.653 30.3137 278.539 29.8934 278.208 29.7009C277.877 29.5111 277.455 29.6223 277.265 29.9531L168.612 218.247C168.419 218.578 168.533 219 168.864 219.19C168.972 219.253 169.092 219.282 169.208 219.282Z" fill="#006B66"/>
<path d="M177.031 215.165C177.267 215.165 177.5 215.04 177.63 214.818L278.743 39.5841C278.936 39.2533 278.822 38.8303 278.491 38.6406C278.16 38.4481 277.737 38.562 277.548 38.8927L176.434 214.129C176.239 214.457 176.356 214.88 176.684 215.073C176.795 215.135 176.914 215.165 177.031 215.165Z" fill="#006B66"/>
<path d="M184.848 210.597C185.092 210.597 185.323 210.472 185.45 210.249L278.777 48.5226C278.97 48.1918 278.856 47.7688 278.525 47.579C278.194 47.3865 277.771 47.5005 277.581 47.8312L184.252 209.561C184.062 209.892 184.176 210.312 184.507 210.504C184.615 210.567 184.732 210.597 184.848 210.597Z" fill="#006B66"/>
<path d="M192.672 206.006C192.91 206.006 193.143 205.884 193.271 205.662L278.795 57.4611C278.987 57.1303 278.873 56.7073 278.543 56.5175C278.212 56.325 277.789 56.4389 277.599 56.7697L192.075 204.971C191.883 205.301 191.996 205.724 192.327 205.914C192.436 205.976 192.555 206.006 192.672 206.006Z" fill="#006B66"/>
<path d="M200.494 201.432C200.733 201.432 200.963 201.308 201.091 201.088L278.815 66.3995C279.007 66.0688 278.893 65.6458 278.563 65.456C278.232 65.2635 277.809 65.3774 277.619 65.7082L199.895 200.397C199.705 200.727 199.817 201.148 200.147 201.34C200.259 201.402 200.375 201.432 200.494 201.432Z" fill="#006B66"/>
<path d="M208.314 196.836C208.552 196.836 208.785 196.711 208.913 196.492L278.82 75.3375C279.013 75.0068 278.899 74.5838 278.568 74.394C278.237 74.2015 277.815 74.3154 277.625 74.6462L207.717 195.8C207.525 196.131 207.639 196.554 207.969 196.744C208.078 196.806 208.197 196.836 208.314 196.836Z" fill="#006B66"/>
<path d="M216.135 192.267C216.376 192.267 216.607 192.143 216.734 191.923L278.853 84.276C279.045 83.9452 278.931 83.5222 278.6 83.3325C278.27 83.14 277.847 83.2539 277.657 83.5846L215.539 191.232C215.346 191.562 215.46 191.985 215.791 192.175C215.899 192.238 216.018 192.267 216.135 192.267Z" fill="#006B66"/>
<path d="M223.958 188.257C224.196 188.257 224.43 188.133 224.554 187.913L278.883 93.7731C279.076 93.4423 278.962 93.0193 278.631 92.8295C278.301 92.637 277.878 92.7509 277.688 93.0817L223.359 187.222C223.169 187.553 223.28 187.976 223.611 188.165C223.722 188.228 223.841 188.257 223.958 188.257Z" fill="#006B66"/>
<path d="M231.498 183.662C231.736 183.662 231.97 183.537 232.097 183.317L278.61 102.712C278.802 102.381 278.688 101.958 278.358 101.768C278.027 101.576 277.604 101.689 277.414 102.02L230.901 182.626C230.709 182.957 230.823 183.38 231.153 183.569C231.262 183.632 231.381 183.662 231.498 183.662Z" fill="#006B66"/>
<path d="M239.319 179.088C239.558 179.088 239.791 178.963 239.918 178.741L278.628 111.65C278.821 111.319 278.707 110.896 278.376 110.706C278.045 110.514 277.623 110.628 277.433 110.959L238.723 178.049C238.53 178.38 238.644 178.803 238.975 178.996C239.083 179.058 239.202 179.088 239.319 179.088Z" fill="#006B66"/>
<path d="M247.14 174.478C247.378 174.478 247.612 174.354 247.739 174.131L278.636 120.588C278.828 120.258 278.714 119.837 278.383 119.645C278.053 119.452 277.63 119.566 277.44 119.897L246.543 173.443C246.351 173.771 246.465 174.194 246.796 174.386C246.904 174.449 247.023 174.478 247.14 174.478Z" fill="#006B66"/>
<path d="M254.963 169.922C255.201 169.922 255.432 169.797 255.559 169.575L278.666 129.526C278.859 129.195 278.745 128.772 278.414 128.582C278.083 128.392 277.661 128.504 277.471 128.834L254.363 168.887C254.174 169.217 254.285 169.638 254.616 169.83C254.727 169.892 254.843 169.922 254.963 169.922Z" fill="#006B66"/>
<path d="M262.782 165.354C263.021 165.354 263.254 165.23 263.382 165.007L278.697 138.465C278.889 138.134 278.776 137.711 278.445 137.521C278.114 137.329 277.691 137.443 277.501 137.774L262.186 164.319C261.993 164.649 262.107 165.07 262.438 165.262C262.547 165.325 262.666 165.354 262.782 165.354Z" fill="#006B66"/>
<path d="M270.604 160.759C270.843 160.759 271.076 160.634 271.203 160.414L278.705 147.403C278.898 147.073 278.784 146.65 278.453 146.46C278.122 146.267 277.699 146.381 277.507 146.712L270.005 159.723C269.815 160.054 269.929 160.477 270.26 160.667C270.368 160.729 270.487 160.759 270.604 160.759Z" fill="#006B66"/>
<path d="M278.108 39.7777C278.346 39.7777 278.58 39.6529 278.707 39.4306C278.897 39.0998 278.783 38.6769 278.452 38.4871L270.948 34.1682C270.622 33.9812 270.197 34.0923 270.004 34.4231C269.814 34.7538 269.931 35.1768 270.262 35.3665L277.764 39.6855C277.872 39.7479 277.991 39.7777 278.108 39.7777Z" fill="#006B66"/>
<path d="M278.101 48.7447C278.34 48.7447 278.573 48.62 278.701 48.3977C278.893 48.0669 278.777 47.6466 278.446 47.4541L263.128 38.6375C262.802 38.4504 262.377 38.5615 262.184 38.8923C261.994 39.2231 262.108 39.646 262.439 39.8358L277.757 48.6525C277.866 48.7149 277.985 48.7447 278.101 48.7447Z" fill="#006B66"/>
<path d="M278.07 57.7258C278.309 57.7258 278.542 57.6011 278.669 57.3788C278.862 57.048 278.748 56.625 278.417 56.4352L255.307 43.1098C254.979 42.9173 254.556 43.0312 254.363 43.3619C254.174 43.6927 254.285 44.1156 254.616 44.3054L277.726 57.6336C277.834 57.696 277.953 57.7258 278.07 57.7258Z" fill="#006B66"/>
<path d="M278.062 66.6928C278.3 66.6928 278.533 66.5681 278.661 66.3458C278.853 66.015 278.739 65.592 278.409 65.4022L247.485 47.5791C247.154 47.3866 246.734 47.5004 246.542 47.8312C246.352 48.1619 246.466 48.5848 246.794 48.7746L277.717 66.6006C277.826 66.663 277.945 66.6928 278.062 66.6928Z" fill="#006B66"/>
<path d="M278.056 75.6607C278.295 75.6607 278.528 75.536 278.656 75.3137C278.848 74.9829 278.734 74.5626 278.403 74.3701L239.666 52.0464C239.338 51.8566 238.912 51.9705 238.723 52.3012C238.53 52.632 238.644 53.0549 238.975 53.2447L277.712 75.5685C277.82 75.6309 277.94 75.6607 278.056 75.6607Z" fill="#006B66"/>
<path d="M278.037 84.6209C278.275 84.6209 278.508 84.4962 278.636 84.2738C278.828 83.9431 278.714 83.5202 278.384 83.3304L231.844 56.5168C231.513 56.3243 231.09 56.4409 230.9 56.7717C230.71 57.1024 230.821 57.5227 231.152 57.7152L277.692 84.5287C277.801 84.591 277.92 84.6209 278.037 84.6209Z" fill="#006B66"/>
<path d="M278.018 93.6075C278.257 93.6075 278.49 93.4829 278.617 93.2605C278.81 92.9298 278.696 92.5069 278.365 92.3171L224.022 60.9868C223.692 60.7943 223.271 60.9081 223.079 61.2389C222.889 61.5696 223 61.9926 223.331 62.1823L277.674 93.5154C277.782 93.5777 277.901 93.6075 278.018 93.6075Z" fill="#006B66"/>
<path d="M278.01 102.575C278.249 102.575 278.482 102.451 278.609 102.228C278.802 101.898 278.688 101.475 278.357 101.285L216.201 65.4541C215.87 65.2643 215.45 65.3782 215.257 65.7089C215.068 66.0397 215.181 66.4626 215.512 66.6524L277.666 102.483C277.774 102.546 277.894 102.575 278.01 102.575Z" fill="#006B66"/>
<path d="M278.271 111.536C278.509 111.536 278.743 111.411 278.87 111.189C279.063 110.858 278.949 110.435 278.618 110.245L208.662 69.9247C208.331 69.7322 207.908 69.8462 207.715 70.1769C207.526 70.5077 207.639 70.9306 207.97 71.1204L277.927 111.441C278.035 111.506 278.154 111.536 278.271 111.536Z" fill="#006B66"/>
<path d="M278.264 120.503C278.503 120.503 278.736 120.378 278.864 120.156C279.056 119.825 278.942 119.402 278.611 119.212L200.839 74.3939C200.508 74.2014 200.085 74.3153 199.895 74.6487C199.705 74.9795 199.817 75.3998 200.147 75.5895L277.92 120.411C278.029 120.473 278.148 120.503 278.264 120.503Z" fill="#006B66"/>
<path d="M278.234 130.039C278.473 130.039 278.706 129.917 278.834 129.695C279.026 129.364 278.912 128.941 278.581 128.752L193.019 79.4217C192.689 79.2292 192.266 79.3431 192.073 79.6766C191.883 80.0046 191.997 80.4276 192.328 80.6174L277.89 129.947C277.999 130.012 278.118 130.039 278.234 130.039Z" fill="#006B66"/>
<path d="M278.24 139.015C278.479 139.015 278.712 138.891 278.839 138.668C279.032 138.338 278.918 137.915 278.587 137.725L185.198 83.8892C184.864 83.6994 184.447 83.8132 184.254 84.144C184.062 84.4748 184.173 84.8977 184.507 85.0875L277.896 138.923C278.004 138.986 278.123 139.015 278.24 139.015Z" fill="#006B66"/>
<path d="M278.221 147.976C278.46 147.976 278.693 147.852 278.82 147.629C279.013 147.299 278.899 146.876 278.568 146.686L177.376 88.3603C177.048 88.1678 176.622 88.2817 176.43 88.6125C176.243 88.9432 176.354 89.3662 176.685 89.5559L277.877 147.884C277.985 147.947 278.104 147.976 278.221 147.976Z" fill="#006B66"/>
<path d="M278.036 156.852C278.274 156.852 278.505 156.727 278.635 156.505C278.825 156.174 278.711 155.751 278.38 155.562L169.556 92.8276C169.223 92.6379 168.802 92.7517 168.61 93.0825C168.42 93.4132 168.534 93.8335 168.865 94.0259L277.689 156.76C277.8 156.822 277.916 156.852 278.036 156.852Z" fill="#006B66"/>
<path d="M270.215 161.321C270.453 161.321 270.684 161.197 270.814 160.974C271.004 160.643 270.89 160.22 270.559 160.031L161.733 97.2969C161.405 97.1071 160.982 97.221 160.789 97.5517C160.599 97.8825 160.713 98.3054 161.044 98.4952L269.868 161.229C269.979 161.291 270.095 161.321 270.215 161.321Z" fill="#006B66"/>
<path d="M262.394 165.79C262.632 165.79 262.865 165.665 262.993 165.445C263.182 165.115 263.069 164.692 262.738 164.502L153.914 101.768C153.583 101.576 153.16 101.689 152.968 102.02C152.778 102.351 152.892 102.774 153.223 102.964L262.049 165.698C262.158 165.76 262.277 165.79 262.394 165.79Z" fill="#006B66"/>
<path d="M254.584 170.253C254.822 170.253 255.055 170.129 255.183 169.906C255.373 169.576 255.259 169.153 254.928 168.963L146.091 106.237C145.76 106.045 145.337 106.159 145.147 106.489C144.957 106.82 145.069 107.243 145.399 107.433L254.239 170.161C254.348 170.224 254.467 170.253 254.584 170.253Z" fill="#006B66"/>
<path d="M246.751 174.731C246.99 174.731 247.22 174.606 247.351 174.384C247.54 174.053 247.427 173.63 247.096 173.44L138.269 110.706C137.938 110.514 137.518 110.628 137.326 110.961C137.136 111.292 137.25 111.715 137.581 111.905L246.404 174.639C246.516 174.701 246.632 174.731 246.751 174.731Z" fill="#006B66"/>
<path d="M238.93 179.197C239.169 179.197 239.402 179.073 239.529 178.853C239.719 178.522 239.605 178.099 239.274 177.91L130.448 115.176C130.12 114.983 129.697 115.097 129.504 115.428C129.315 115.759 129.428 116.182 129.759 116.371L238.583 179.105C238.694 179.168 238.814 179.197 238.93 179.197Z" fill="#006B66"/>
<path d="M231.109 183.667C231.348 183.667 231.578 183.542 231.708 183.32C231.898 182.989 231.784 182.569 231.454 182.376L122.63 119.645C122.299 119.452 121.876 119.566 121.684 119.897C121.494 120.228 121.608 120.651 121.938 120.841L230.762 183.574C230.871 183.637 230.99 183.667 231.109 183.667Z" fill="#006B66"/>
<path d="M223.288 188.137C223.527 188.137 223.76 188.013 223.887 187.79C224.077 187.46 223.966 187.037 223.635 186.847L114.809 124.113C114.478 123.923 114.055 124.034 113.862 124.368C113.673 124.699 113.786 125.119 114.117 125.311L222.944 188.045C223.052 188.107 223.171 188.137 223.288 188.137Z" fill="#006B66"/>
<path d="M215.64 192.66C215.878 192.66 216.111 192.535 216.239 192.313C216.429 191.985 216.318 191.562 215.987 191.372L114.809 133.052C114.475 132.86 114.055 132.974 113.862 133.307C113.673 133.638 113.786 134.058 114.117 134.248L215.295 192.568C215.404 192.63 215.523 192.66 215.64 192.66Z" fill="#006B66"/>
<path d="M207.826 197.101C208.065 197.101 208.298 196.976 208.425 196.754C208.615 196.423 208.501 196.003 208.17 195.81L114.809 141.991C114.475 141.798 114.055 141.912 113.862 142.243C113.673 142.574 113.786 142.996 114.117 143.186L207.482 197.009C207.59 197.071 207.71 197.101 207.826 197.101Z" fill="#006B66"/>
<path d="M200.023 201.547C200.262 201.547 200.495 201.425 200.623 201.202C200.812 200.872 200.699 200.449 200.368 200.259L114.809 150.929C114.475 150.737 114.055 150.85 113.862 151.181C113.673 151.512 113.786 151.935 114.117 152.125L199.679 201.455C199.788 201.52 199.907 201.547 200.023 201.547Z" fill="#006B66"/>
<path d="M192.21 206.535C192.448 206.535 192.679 206.41 192.809 206.188C192.999 205.857 192.885 205.434 192.554 205.245L114.809 160.426C114.475 160.234 114.055 160.348 113.862 160.678C113.673 161.009 113.786 161.432 114.117 161.622L191.863 206.443C191.974 206.505 192.091 206.535 192.21 206.535Z" fill="#006B66"/>
<path d="M184.404 210.968C184.646 210.968 184.879 210.843 185.006 210.621C185.199 210.29 185.082 209.87 184.754 209.677L114.809 169.365C114.475 169.172 114.055 169.286 113.862 169.617C113.673 169.948 113.786 170.37 114.117 170.56L184.063 210.875C184.171 210.938 184.288 210.968 184.404 210.968Z" fill="#006B66"/>
<path d="M176.604 215.414C176.843 215.414 177.076 215.292 177.203 215.069C177.393 214.739 177.282 214.316 176.949 214.126L114.809 178.303C114.475 178.111 114.055 178.225 113.862 178.555C113.673 178.886 113.786 179.309 114.117 179.499L176.257 215.322C176.368 215.387 176.488 215.414 176.604 215.414Z" fill="#006B66"/>
<path d="M168.791 219.841C169.029 219.841 169.26 219.719 169.387 219.497C169.58 219.166 169.468 218.743 169.138 218.553L114.809 187.242C114.475 187.049 114.055 187.163 113.862 187.494C113.673 187.825 113.786 188.248 114.117 188.437L168.446 219.749C168.555 219.811 168.674 219.841 168.791 219.841Z" fill="#006B66"/>
<path d="M160.988 224.289C161.227 224.289 161.46 224.164 161.587 223.942C161.777 223.611 161.666 223.188 161.335 222.999L114.809 196.18C114.475 195.987 114.055 196.101 113.862 196.432C113.673 196.763 113.786 197.185 114.117 197.375L160.644 224.197C160.752 224.259 160.871 224.289 160.988 224.289Z" fill="#006B66"/>
<path d="M153.174 228.716C153.413 228.716 153.646 228.591 153.774 228.369C153.963 228.038 153.849 227.618 153.519 227.426L114.809 205.118C114.475 204.926 114.055 205.039 113.862 205.37C113.673 205.701 113.786 206.124 114.117 206.314L152.83 228.624C152.938 228.686 153.058 228.716 153.174 228.716Z" fill="#006B66"/>
<path d="M145.372 233.162C145.61 233.162 145.843 233.04 145.971 232.818C146.161 232.487 146.047 232.064 145.716 231.874L114.809 214.057C114.475 213.864 114.055 213.978 113.862 214.309C113.673 214.64 113.786 215.062 114.117 215.252L145.027 233.07C145.136 233.132 145.255 233.162 145.372 233.162Z" fill="#006B66"/>
<path d="M137.572 237.597C137.81 237.597 138.041 237.473 138.171 237.25C138.36 236.92 138.247 236.497 137.916 236.307L114.809 222.995C114.475 222.803 114.055 222.916 113.862 223.247C113.673 223.578 113.786 224.001 114.117 224.191L137.225 237.505C137.336 237.568 137.452 237.597 137.572 237.597Z" fill="#006B66"/>
<path d="M129.754 242.598C129.993 242.598 130.226 242.473 130.354 242.25C130.546 241.92 130.432 241.497 130.101 241.307L114.808 232.49C114.477 232.3 114.054 232.414 113.864 232.745C113.672 233.076 113.786 233.499 114.116 233.689L129.41 242.505C129.519 242.568 129.638 242.598 129.754 242.598Z" fill="#006B66"/>
<path d="M121.951 247.029C122.192 247.029 122.423 246.907 122.55 246.685C122.743 246.354 122.626 245.931 122.295 245.741L114.807 241.431C114.479 241.238 114.053 241.352 113.864 241.683C113.671 242.014 113.788 242.436 114.118 242.626L121.609 246.937C121.715 246.999 121.834 247.029 121.951 247.029Z" fill="#006B66"/>
<path d="M116.841 251.954L280.642 157.388L280.639 31.8259L116.841 126.392V251.954ZM289.017 162.225L108.466 266.464L108.463 121.558L289.017 17.3184V162.225Z" fill="#00A19A"/>
<path d="M93.2178 147.314C93.5703 147.314 93.9281 147.224 94.2535 147.035L106.128 140.178C107.121 139.606 107.46 138.34 106.888 137.348C106.315 136.355 105.047 136.016 104.057 136.589L92.1821 143.445C91.1898 144.017 90.8509 145.286 91.423 146.276C91.8053 146.943 92.5048 147.314 93.2178 147.314Z" fill="#006964"/>
<path d="M93.2178 204.294C93.5703 204.294 93.9281 204.205 94.2535 204.015L106.128 197.161C107.121 196.589 107.46 195.32 106.888 194.328C106.315 193.336 105.047 193 104.057 193.572L92.1821 200.426C91.1898 200.998 90.8509 202.266 91.423 203.259C91.8053 203.923 92.5048 204.294 93.2178 204.294Z" fill="#006964"/>
<path d="M93.2178 261.277C93.5703 261.277 93.9281 261.188 94.2535 261.001L106.128 254.144C107.121 253.572 107.46 252.303 106.888 251.314C106.315 250.321 105.047 249.98 104.057 250.555L92.1821 257.411C91.1898 257.983 90.8509 259.249 91.423 260.242C91.8053 260.906 92.5048 261.277 93.2178 261.277Z" fill="#006964"/>
<path d="M87.0558 272.133C84.3147 273.713 84.3147 276.281 87.0558 277.862C89.7968 279.445 94.2404 279.445 96.9814 277.862C99.7224 276.281 99.7224 273.713 96.9814 272.133C94.2404 270.549 89.7968 270.549 87.0558 272.133Z" fill="#00807A"/>
<path d="M99.0385 122.903H85V275.13H99.0385V122.903Z" fill="#00807A"/>
<path d="M87.0558 119.621C84.3147 121.204 84.3147 123.769 87.0558 125.353C89.7968 126.936 94.2404 126.936 96.9814 125.353C99.7224 123.769 99.7224 121.204 96.9814 119.621C94.2404 118.038 89.7968 118.038 87.0558 119.621Z" fill="#00A19A"/>
</svg>
