<svg width="28" height="28" viewBox="0 0 28 28" fill="none" xmlns="http://www.w3.org/2000/svg">
<path d="M10.7798 4.76608C11.2904 4.61216 11.8382 4.63773 12.3321 4.83854C12.8261 5.03935 13.2364 5.40328 13.4947 5.86975L13.5822 6.04358L14.3533 7.75975C14.5877 8.28065 14.6638 8.85896 14.5721 9.42276C14.4805 9.98656 14.225 10.511 13.8377 10.9307L13.6837 11.0847L12.4657 12.2199C12.2463 12.4276 12.4108 13.2314 13.2053 14.6057C13.9182 15.8424 14.5003 16.4199 14.785 16.4514H14.8352L14.897 16.4397L17.2887 15.7082C17.6101 15.6097 17.9531 15.6058 18.2767 15.697C18.6003 15.7883 18.8908 15.9708 19.1133 16.2227L19.2207 16.3569L20.8027 18.5502C21.1131 18.98 21.2679 19.5027 21.2416 20.0322C21.2153 20.5617 21.0095 21.0665 20.658 21.4634L20.5157 21.6104L19.8822 22.2101C19.3144 22.7478 18.6041 23.1112 17.8357 23.257C17.0674 23.4028 16.2734 23.3249 15.548 23.0326C13.2905 22.1226 11.2395 20.0436 9.37635 16.8166C7.50968 13.5814 6.73385 10.7616 7.08035 8.34658C7.1853 7.61643 7.48609 6.92834 7.95075 6.35542C8.41541 5.78251 9.02658 5.34616 9.71935 5.09275L9.94451 5.01808L10.7798 4.76608Z" fill="#2D9F4C"/>
</svg>
