<svg width="24" height="24" viewBox="0 0 24 24" fill="none" xmlns="http://www.w3.org/2000/svg">
<path d="M10.3012 16.3347C10.4998 16.1254 10.7383 15.958 11.0026 15.8423C11.267 15.7267 11.5518 15.6651 11.8403 15.6613C12.1288 15.6575 12.4151 15.7116 12.6824 15.8202C12.9497 15.9289 13.1925 16.09 13.3965 16.294C13.6006 16.498 13.7617 16.7408 13.8703 17.0081C13.979 17.2754 14.033 17.5617 14.0292 17.8502C14.0254 18.1387 13.9639 18.4236 13.8482 18.6879C13.7326 18.9522 13.5651 19.1907 13.3558 19.3893C12.9487 19.7847 12.4024 20.004 11.835 19.9999C11.2675 19.9958 10.7244 19.7687 10.323 19.3675C9.92166 18.9663 9.69423 18.4233 9.68988 17.8559C9.68553 17.2884 9.9046 16.742 10.2998 16.3347H10.3012ZM6.55277 12.3876C7.96542 10.9752 9.88126 10.1817 11.8789 10.1817C13.8765 10.1817 15.7924 10.9752 17.205 12.3876C17.8672 13.0512 18.4113 13.8631 18.7899 14.7268C18.8658 14.8999 18.9069 15.0864 18.9107 15.2754C18.9146 15.4644 18.8812 15.6523 18.8124 15.8284C18.7436 16.0046 18.6408 16.1654 18.5099 16.3018C18.379 16.4382 18.2225 16.5474 18.0493 16.6233C17.8761 16.6992 17.6897 16.7403 17.5007 16.7441C17.3117 16.748 17.1237 16.7146 16.9476 16.6458C16.7715 16.577 16.6107 16.4742 16.4743 16.3433C16.3379 16.2124 16.2287 16.0559 16.1528 15.8827C15.917 15.3406 15.5837 14.8464 15.1696 14.4245C14.2968 13.5518 13.1131 13.0615 11.8789 13.0615C10.6447 13.0615 9.46098 13.5518 8.58821 14.4245C8.17897 14.8399 7.8509 15.3281 7.62087 15.864C7.54657 16.0394 7.4382 16.1983 7.30204 16.3315C7.16588 16.4647 7.00463 16.5696 6.82764 16.64C6.65066 16.7104 6.46145 16.745 6.27099 16.7418C6.08053 16.7386 5.89261 16.6976 5.71811 16.6212C5.54362 16.5448 5.38602 16.4345 5.25445 16.2968C5.12287 16.159 5.01995 15.9966 4.95164 15.8187C4.88333 15.6409 4.85099 15.4513 4.8565 15.2609C4.862 15.0705 4.90525 14.8831 4.98372 14.7095C5.35741 13.8445 5.88957 13.057 6.55277 12.3876ZM3.60756 8.08208C4.69403 6.99555 5.98388 6.13367 7.40345 5.54565C8.82302 4.95762 10.3445 4.65497 11.8811 4.65497C13.4176 4.65497 14.9391 4.95762 16.3587 5.54565C17.7782 6.13367 19.0681 6.99555 20.1546 8.08208C21.0263 8.96491 21.7561 9.97735 22.3181 11.0834C22.4786 11.4217 22.501 11.8092 22.3805 12.1637C22.2601 12.5182 22.0062 12.8118 21.6728 12.9822C21.3395 13.1526 20.9528 13.1865 20.5949 13.0765C20.237 12.9666 19.936 12.7215 19.7558 12.3934C19.3304 11.5552 18.7783 10.7876 18.1191 10.1175C17.1337 9.13176 15.9288 8.39353 14.603 7.96335C13.2772 7.53316 11.8684 7.42325 10.4919 7.64264C9.11548 7.86203 7.81062 8.40446 6.68427 9.22549C5.55793 10.0465 4.64217 11.1228 4.01206 12.366C3.92755 12.536 3.81026 12.6876 3.66694 12.8121C3.52361 12.9365 3.35708 13.0314 3.17693 13.0913C2.99679 13.1511 2.80658 13.1748 2.61727 13.1608C2.42795 13.1469 2.24326 13.0956 2.07384 13.01C1.90441 12.9244 1.75359 12.8061 1.63006 12.6619C1.50653 12.5178 1.41273 12.3507 1.35406 12.1701C1.29538 11.9896 1.273 11.7992 1.28819 11.61C1.30337 11.4208 1.35584 11.2365 1.44256 11.0676C2.00086 9.96362 2.73171 8.95578 3.60756 8.08208Z" fill="#2D9F4C"/>
</svg>
