<svg width="181" height="159" viewBox="0 0 181 159" fill="none" xmlns="http://www.w3.org/2000/svg">
<ellipse cx="90.5" cy="126" rx="90.5" ry="33" fill="#F5F5F5"/>
<g opacity="0.8">
<path d="M0.73852 37.7144L1.72168 51.3676L0.983231 51.4208L7.07374e-05 37.7676L0.73852 37.7144Z" fill="#3C74DC"/>
<path d="M2.2326 58.4209L2.60278 63.5568L1.8636 63.6101L1.49342 58.4742L2.2326 58.4209Z" fill="#3C74DC"/>
<path d="M173.694 121.229H15.1401C11.5545 121.229 8.4087 118.295 8.15032 114.709L0.360233 6.51962C0.101847 2.93405 2.82489 0 6.41046 0H164.965C168.551 0 171.696 2.93405 171.955 6.51962L179.745 114.709C180.004 118.295 177.281 121.229 173.694 121.229Z" fill="#3C74DC"/>
<path d="M174.304 121.229H15.7502C12.1646 121.229 9.01881 118.295 8.76043 114.709L0.97034 6.51962C0.711954 2.93405 3.435 0 7.02057 0H165.575C169.161 0 172.306 2.93405 172.565 6.51962L180.355 114.709C180.614 118.295 177.891 121.229 174.304 121.229Z" fill="#3C74DC"/>
<g opacity="0.5">
<g opacity="0.5">
<path opacity="0.5" d="M174.304 121.229H15.7502C12.1646 121.229 9.01881 118.295 8.76043 114.709L0.97034 6.51962C0.711954 2.93405 3.435 0 7.02057 0H165.575C169.161 0 172.306 2.93405 172.565 6.51962L180.355 114.709C180.614 118.295 177.891 121.229 174.304 121.229Z" fill="white"/>
</g>
</g>
<path d="M165.811 3.26477H7.25618C7.07701 3.26477 6.90007 3.27217 6.72534 3.28624C2.67187 3.62014 3.50033 9.78514 7.59083 9.78514H166.415C170.506 9.78514 170.446 3.62014 166.345 3.28624C166.168 3.27217 165.99 3.26477 165.811 3.26477Z" fill="#3C74DC"/>
<path d="M11.3652 6.51473C11.4245 7.34023 10.8033 8.00952 9.9778 8.00952C9.15229 8.00952 8.43488 7.34023 8.37566 6.51473C8.31643 5.68922 8.93759 5.01994 9.76309 5.01994C10.5886 5.01994 11.306 5.68922 11.3652 6.51473Z" fill="#FAFAFA"/>
<path d="M16.449 6.51473C16.5082 7.34023 15.887 8.00952 15.0615 8.00952C14.236 8.00952 13.5186 7.34023 13.4594 6.51473C13.4002 5.68922 14.0206 5.01994 14.8468 5.01994C15.6723 5.01994 16.3897 5.68922 16.449 6.51473Z" fill="#FAFAFA"/>
<path d="M21.5552 6.51473C21.6144 7.34023 20.9932 8.00952 20.1677 8.00952C19.3422 8.00952 18.6248 7.34023 18.5656 6.51473C18.5064 5.68922 19.1268 5.01994 19.953 5.01994C20.7785 5.01994 21.4959 5.68922 21.5552 6.51473Z" fill="#FAFAFA"/>
<path d="M170.098 110.429H18.3956C17.0903 110.429 15.9553 109.371 15.8613 108.065L9.45495 19.0947C9.36093 17.7888 10.3434 16.7308 11.6486 16.7308H163.351C164.656 16.7308 165.79 17.7888 165.884 19.0947L172.292 108.065C172.386 109.371 171.403 110.429 170.098 110.429Z" fill="white"/>
<path d="M106.187 76.5404L103.718 42.2476L96.2352 37.7432H75.6494L78.4435 76.5404H106.187Z" fill="white"/>
<path d="M78.774 76.1789H105.798L103.37 42.4561L96.1318 38.0999H76.0317L78.774 76.1789ZM106.184 76.8963H78.4401C78.2521 76.8963 78.0959 76.7512 78.0825 76.5639L75.2884 37.7667C75.2818 37.6675 75.3158 37.569 75.3839 37.4965C75.452 37.4232 75.5468 37.3817 75.6468 37.3817H96.2318C96.2969 37.3817 96.3606 37.4002 96.4169 37.4335L103.9 41.9372C104 41.9979 104.064 42.103 104.072 42.2192L106.542 76.512C106.549 76.6112 106.515 76.709 106.447 76.7823C106.378 76.8548 106.284 76.8963 106.184 76.8963Z" fill="#3C74DC"/>
<path d="M103.715 42.2468L96.2324 37.7432L98.9799 43.7098L103.715 42.2468Z" fill="#ECECEC"/>
<path d="M97.0428 38.6484L99.1713 43.2712L102.841 42.1385L97.0428 38.6484ZM98.9773 44.0656C98.8404 44.0656 98.7108 43.9871 98.6508 43.8568L95.9041 37.8903C95.8382 37.7474 95.873 37.5778 95.9907 37.4727C96.1077 37.3683 96.2802 37.352 96.4149 37.4327L103.898 41.9371C104.018 42.0096 104.086 42.1474 104.069 42.288C104.052 42.4279 103.953 42.5449 103.819 42.5871L99.0832 44.0501C99.0477 44.0604 99.0121 44.0656 98.9773 44.0656Z" fill="#3C74DC"/>
<path d="M87.2586 55.2229C87.3208 56.0884 86.67 56.7902 85.8038 56.7902C84.9383 56.7902 84.1861 56.0884 84.1239 55.2229C84.0617 54.3574 84.7125 53.6555 85.5787 53.6555C86.4442 53.6555 87.1964 54.3574 87.2586 55.2229Z" fill="#3C74DC"/>
<path d="M97.4261 55.2229C97.4883 56.0884 96.8375 56.7902 95.9713 56.7902C95.1058 56.7902 94.3536 56.0884 94.2914 55.2229C94.2292 54.3574 94.88 53.6555 95.7462 53.6555C96.6117 53.6555 97.3639 54.3574 97.4261 55.2229Z" fill="#3C74DC"/>
<path d="M100.288 65.3819C100.101 65.3819 99.9443 65.2375 99.9302 65.0487C99.7489 62.5285 95.7968 60.4785 91.1199 60.4785C88.0215 60.4785 85.24 61.4002 83.86 62.8832C83.2462 63.5421 82.9626 64.2536 83.016 64.9969C83.03 65.1953 82.8819 65.3663 82.6843 65.3811C82.4859 65.393 82.3148 65.2464 82.3 65.0487C82.2326 64.1122 82.5902 63.1941 83.335 62.3945C84.8461 60.7702 87.829 59.761 91.1199 59.761C96.2499 59.761 100.434 62.0614 100.646 64.9969C100.66 65.1953 100.511 65.3663 100.314 65.3811C100.305 65.3819 100.297 65.3819 100.288 65.3819Z" fill="#3C74DC"/>
<path d="M81.4759 52.0503C81.3886 52.0503 81.3012 52.0185 81.2316 51.9548C81.0865 51.8193 81.0784 51.5928 81.2131 51.4477L82.7849 49.7537C82.9204 49.6079 83.1477 49.6005 83.2921 49.7345C83.4372 49.8692 83.446 50.0965 83.3113 50.2416L81.7388 51.9356C81.6684 52.0118 81.5722 52.0503 81.4759 52.0503Z" fill="#3C74DC"/>
<path d="M99.5596 52.0506C99.4722 52.0506 99.3841 52.0188 99.3145 51.9543L97.4984 50.2604C97.3541 50.1249 97.3459 49.8984 97.4814 49.7532C97.6162 49.6081 97.8427 49.6 97.9878 49.7355L99.8047 51.4294C99.949 51.5649 99.9572 51.7915 99.8217 51.9366C99.7514 52.0121 99.6559 52.0506 99.5596 52.0506Z" fill="#3C74DC"/>
<path d="M73.4126 84.2078H75.0858L77.5001 87.4165L77.2691 84.2078H78.9587L79.3762 90.007H77.6867L75.2857 86.8227L75.5152 90.007H73.8302L73.4126 84.2078Z" fill="#3C74DC"/>
<path d="M81.905 87.1165C81.9472 87.7021 82.0864 88.1227 82.3226 88.3781C82.558 88.6343 82.8638 88.7623 83.2377 88.7623C83.6227 88.7623 83.9121 88.6365 84.1046 88.3862C84.2979 88.1353 84.3712 87.6859 84.3245 87.0373C84.2845 86.4916 84.1461 86.0926 83.9077 85.8409C83.6693 85.5891 83.3613 85.4633 82.9845 85.4633C82.6232 85.4633 82.3426 85.5906 82.1419 85.8468C81.9413 86.1022 81.8628 86.5257 81.905 87.1165ZM80.1126 87.1084C80.0445 86.1614 80.2547 85.4248 80.7441 84.8969C81.2342 84.3698 81.9494 84.1062 82.8904 84.1062C83.8559 84.1062 84.6184 84.3653 85.1774 84.8836C85.7371 85.4018 86.0503 86.1274 86.1177 87.061C86.1665 87.7392 86.0925 88.2944 85.8956 88.7283C85.6986 89.1621 85.3936 89.4997 84.9797 89.7411C84.5659 89.9825 84.0373 90.1031 83.3939 90.1031C82.7401 90.1031 82.1908 89.9987 81.7473 89.7907C81.3038 89.5819 80.9329 89.2525 80.6338 88.8016C80.3354 88.3507 80.1615 87.7865 80.1126 87.1084Z" fill="#3C74DC"/>
<path d="M91.4987 85.5212L91.7268 88.6899H92.1658C92.5404 88.6899 92.804 88.6485 92.9558 88.5648C93.1083 88.4819 93.2216 88.3368 93.2963 88.1302C93.3711 87.9229 93.3918 87.5875 93.3585 87.1233C93.3141 86.5088 93.1838 86.0883 92.9669 85.861C92.75 85.6344 92.4101 85.5212 91.9459 85.5212H91.4987ZM89.6123 84.2078H92.2746C92.7996 84.2078 93.2282 84.2788 93.5614 84.4217C93.8946 84.5639 94.1766 84.7682 94.4069 85.0347C94.6371 85.3013 94.8119 85.6107 94.9325 85.9639C95.0532 86.3178 95.1273 86.6924 95.1561 87.0878C95.2005 87.7075 95.1643 88.188 95.048 88.5293C94.9318 88.8713 94.7563 89.1571 94.5224 89.3881C94.2884 89.6183 94.0308 89.7723 93.7487 89.8486C93.363 89.9545 93.0113 90.007 92.6922 90.007H90.0299L89.6123 84.2078Z" fill="#3C74DC"/>
<path d="M98.9899 87.7956L98.2 85.7107L97.7165 87.7956H98.9899ZM99.4519 89.0497H97.4174L97.2035 90.007H95.374L97.1361 84.2078H99.0906L101.687 90.007H99.811L99.4519 89.0497Z" fill="#3C74DC"/>
<path d="M100.887 84.2078H106.334L106.436 85.6396H104.609L104.924 90.007H103.131L102.818 85.6396H100.99L100.887 84.2078Z" fill="#3C74DC"/>
<path d="M110.038 87.7956L109.248 85.7107L108.765 87.7956H110.038ZM110.5 89.0497H108.466L108.252 90.007H106.422L108.184 84.2078H110.139L112.735 90.007H110.859L110.5 89.0497Z" fill="#3C74DC"/>
</g>
</svg>
