<svg width="24" height="32" viewBox="0 0 24 32" fill="none" xmlns="http://www.w3.org/2000/svg">
<path d="M20 26.6667C19.8034 26.6697 19.611 26.5904 19.45 26.44L12.55 20.36C12.3867 20.2166 12.1955 20.1402 12 20.1402C11.8045 20.1402 11.6133 20.2166 11.45 20.36L4.55 26.44C4.36639 26.5978 4.14907 26.6711 3.93127 26.6486C3.71348 26.6262 3.50718 26.5093 3.34391 26.3158C3.18064 26.1223 3.06938 25.8628 3.02714 25.5771C2.9849 25.2913 3.01401 24.995 3.11 24.7333L11.11 3.4C11.1939 3.1816 11.3214 2.99831 11.4784 2.87032C11.6355 2.74234 11.816 2.67461 12 2.67461C12.1841 2.67461 12.3645 2.74234 12.5216 2.87032C12.6786 2.99831 12.8061 3.1816 12.89 3.4L20.89 24.7333C20.9897 24.9964 21.0212 25.2961 20.9796 25.5856C20.938 25.8751 20.8256 26.138 20.66 26.3333C20.4777 26.5477 20.2431 26.6662 20 26.6667Z" fill="#3C74DC"/>
</svg>
