<svg width="265" height="220" viewBox="0 0 265 220" fill="none" xmlns="http://www.w3.org/2000/svg">
<ellipse cx="132.5" cy="171" rx="132.5" ry="49" fill="#F5F5F5"/>
<g opacity="0.8">
<path d="M184.399 163.743H86.1673C83.9459 163.743 81.9969 159.78 81.8368 154.936L77.0105 8.806C76.8504 3.963 78.5375 0 80.7589 0H178.99C181.212 0 183.161 3.963 183.321 8.806L188.148 154.936C188.308 159.78 186.621 163.743 184.399 163.743Z" fill="#3C74DC"/>
<path d="M184.777 163.743H86.5452C84.3238 163.743 82.3748 159.78 82.2148 154.936L77.3884 8.806C77.2284 3.963 78.9154 0 81.1368 0H179.368C181.59 0 183.539 3.963 183.699 8.806L188.526 154.936C188.686 159.78 186.999 163.743 184.777 163.743Z" fill="#3C74DC"/>
<g opacity="0.5">
<g opacity="0.5">
<path opacity="0.5" d="M184.777 163.743H86.5452C84.3238 163.743 82.3748 159.78 82.2148 154.936L77.3884 8.806C77.2284 3.963 78.9154 0 81.1368 0H179.368C181.59 0 183.539 3.963 183.699 8.806L188.526 154.936C188.686 159.78 186.999 163.743 184.777 163.743Z" fill="white"/>
</g>
</g>
<path d="M179.514 4.40967H81.2828C81.1718 4.40967 81.0621 4.41967 80.9539 4.43867C78.4426 4.88967 78.9558 13.2167 81.4901 13.2167H179.889C182.423 13.2167 182.386 4.88967 179.845 4.43867C179.736 4.41967 179.625 4.40967 179.514 4.40967Z" fill="#3C74DC"/>
<path d="M83.8286 8.79935C83.8653 9.91436 83.4805 10.8184 82.9691 10.8184C82.4576 10.8184 82.0132 9.91436 81.9765 8.79935C81.9398 7.68435 82.3246 6.78035 82.836 6.78035C83.3475 6.78035 83.7919 7.68435 83.8286 8.79935Z" fill="#FAFAFA"/>
<path d="M86.978 8.79935C87.0147 9.91436 86.6299 10.8184 86.1185 10.8184C85.607 10.8184 85.1626 9.91436 85.1259 8.79935C85.0892 7.68435 85.4736 6.78035 85.9854 6.78035C86.4969 6.78035 86.9414 7.68435 86.978 8.79935Z" fill="#FAFAFA"/>
<path d="M90.1416 8.79935C90.1783 9.91436 89.7935 10.8184 89.282 10.8184C88.7706 10.8184 88.3261 9.91436 88.2894 8.79935C88.2528 7.68435 88.6371 6.78035 89.149 6.78035C89.6605 6.78035 90.1049 7.68435 90.1416 8.79935Z" fill="#FAFAFA"/>
<path d="M182.17 149.156H88.1841C87.3754 149.156 86.6722 147.727 86.614 145.963L82.645 25.7911C82.5867 24.0271 83.1954 22.5981 84.0041 22.5981H177.99C178.799 22.5981 179.502 24.0271 179.56 25.7911L183.53 145.963C183.588 147.727 182.979 149.156 182.17 149.156Z" fill="white"/>
<path d="M141.044 57.0625L136.408 50.9795L138.11 59.0385L141.044 57.0625Z" fill="#ECECEC"/>
</g>
<path d="M127.831 82.5422C127.915 83.7112 127.036 84.6592 125.866 84.6592C124.697 84.6592 123.681 83.7112 123.597 82.5422C123.513 81.3732 124.392 80.4252 125.562 80.4252C126.731 80.4252 127.747 81.3732 127.831 82.5422Z" fill="#3C74DC"/>
<path d="M141.564 82.5422C141.648 83.7112 140.769 84.6592 139.599 84.6592C138.43 84.6592 137.414 83.7112 137.33 82.5422C137.246 81.3732 138.125 80.4252 139.295 80.4252C140.464 80.4252 141.48 81.3732 141.564 82.5422Z" fill="#3C74DC"/>
<path d="M145.43 96.2639C145.178 96.2639 144.966 96.0689 144.947 95.8139C144.702 92.4099 139.364 89.6409 133.047 89.6409C128.862 89.6409 125.105 90.8859 123.241 92.8889C122.412 93.7789 122.029 94.7399 122.101 95.7439C122.12 96.0119 121.92 96.2429 121.653 96.2629C121.385 96.2789 121.154 96.0809 121.134 95.8139C121.043 94.5489 121.526 93.3089 122.532 92.2289C124.573 90.0349 128.602 88.6719 133.047 88.6719C139.976 88.6719 145.628 91.7789 145.914 95.7439C145.933 96.0119 145.732 96.2429 145.465 96.2629C145.453 96.2639 145.442 96.2639 145.43 96.2639Z" fill="#3C74DC"/>
<path d="M120.021 78.2571C119.903 78.2571 119.785 78.2141 119.691 78.1281C119.495 77.9451 119.484 77.6391 119.666 77.4431L121.789 75.1551C121.972 74.9581 122.279 74.9481 122.474 75.1291C122.67 75.3111 122.682 75.6181 122.5 75.8141L120.376 78.1021C120.281 78.2051 120.151 78.2571 120.021 78.2571Z" fill="#3C74DC"/>
<path d="M144.446 78.2574C144.328 78.2574 144.209 78.2144 144.115 78.1274L141.662 75.8394C141.467 75.6564 141.456 75.3504 141.639 75.1544C141.821 74.9584 142.127 74.9474 142.323 75.1304L144.777 77.4184C144.972 77.6014 144.983 77.9074 144.8 78.1034C144.705 78.2054 144.576 78.2574 144.446 78.2574Z" fill="#3C74DC"/>
</svg>
