<svg width="265" height="294" viewBox="0 0 265 294" fill="none" xmlns="http://www.w3.org/2000/svg">
<ellipse cx="132.5" cy="245" rx="132.5" ry="49" fill="#F5F5F5"/>
<path d="M201.959 165.313H150.655V246.72H201.959V165.313Z" fill="#B2B2B2"/>
<path d="M150.855 165.313H99.5508V246.72H150.855V165.313Z" fill="#D1D1D1"/>
<path d="M123.976 66.5944L121.789 110.353L111.505 142.441H130.02L139.636 114.794L142.642 83.3731L123.976 66.5944Z" fill="#F7EBE7"/>
<path d="M123.459 219.54L127.182 236.886L114.678 238.372L111.122 221.293L123.459 219.54Z" fill="#FCC9A7"/>
<path d="M127.933 235.317C127.615 234.382 126.614 234.048 125.929 234.649C124.594 235.834 122.189 237.287 118.633 236.936C114.944 236.569 113.558 234.398 113.024 232.829C112.74 232.011 111.955 231.594 111.254 231.944L88.8657 243.197C87.5134 243.881 86.4449 245.15 85.9106 246.736C85.4098 248.222 86.4115 249.825 87.8139 249.791L126.497 248.723C128.016 248.69 129.185 247.187 129.051 245.451L128.417 236.936C128.4 236.803 128.383 236.652 128.333 236.519L127.933 235.317Z" fill="#1F252A"/>
<path d="M123.242 135.663H94.2088C94.2088 135.663 76.5285 134.678 75.4767 149.186C74.4249 163.694 101.405 205.198 105.628 227.37L129.903 225.366L112.423 165.08L155.898 165.33C159.12 165.347 162.326 164.879 165.364 163.828C173.829 160.889 186.751 156.682 179.705 133.375L123.242 135.663Z" fill="#092330"/>
<path d="M145.646 219.606L151.557 240.342L139.052 241.828L133.309 221.359L145.646 219.606Z" fill="#FCC9A7"/>
<path d="M152.308 238.773C151.991 237.838 150.989 237.504 150.305 238.105C148.969 239.29 146.565 240.743 143.009 240.392C139.319 240.025 137.933 237.855 137.399 236.285C137.115 235.467 136.331 235.05 135.63 235.4L113.241 246.653C111.889 247.338 110.82 248.606 110.286 250.192C109.785 251.678 110.787 253.281 112.189 253.248L151.54 252.179C153.059 252.146 154.228 250.643 154.095 248.907L152.776 240.392C152.759 240.259 152.742 240.108 152.692 239.975L152.308 238.773Z" fill="#1F252A"/>
<path d="M157.934 49.3986C158.585 50.033 187.718 57.4624 187.718 57.4624L181.491 74.0074L149.636 71.6033L157.934 49.3986Z" fill="#F7EBE7"/>
<path d="M145.914 53.3879C145.914 53.3879 126.932 60.3165 123.977 66.5939C124.995 75.4591 128.117 83.9904 133.259 91.2862C139.57 100.235 147.367 115.611 145.931 135.662H200.808C200.808 135.662 197.853 79.2489 181.609 57.5951L145.914 53.3879Z" fill="#F7EBE7"/>
<path d="M152.14 62.3379C157.533 61.236 161.005 55.977 159.904 50.5844L156.681 34.8074L137.165 38.7975L140.387 54.5746C141.489 59.9672 146.748 63.4398 152.14 62.3379Z" fill="#FCC9A7"/>
<path d="M158.017 40.3165C158.017 40.3165 155.963 53.1051 146.013 53.8731C137.298 54.5409 138.132 41.936 138.132 41.936L158.017 40.3165Z" fill="#F4BE9A"/>
<path d="M146.797 46.8609L148.517 46.4602C157.149 44.4568 162.524 35.842 160.521 27.2273L158.25 17.3937C156.247 8.76228 147.632 3.3864 139.017 5.38984L137.298 5.79053C128.666 7.79396 123.29 16.4087 125.294 25.0235L127.565 34.857C129.568 43.4885 138.183 48.8643 146.797 46.8609Z" fill="#FCC9A7"/>
<path d="M155.111 31.3176C154.711 32.0021 154.327 33.0372 154.193 34.6065C154.043 36.5933 153.041 38.4798 151.372 39.5817C146.58 42.7538 142.924 34.7234 135.845 36.1425C135.845 36.1425 133.074 36.5599 132.523 39.6485C131.972 42.7205 128.115 37.3446 127.264 33.6716C126.412 29.9986 125.978 51.8528 143.408 49.9996C143.408 49.9996 152.206 49.7158 158.133 40.7504C158.784 39.7654 159.168 38.6134 159.202 37.428C159.252 35.675 159.001 33.0205 157.332 31.1172C156.748 30.416 155.579 30.5162 155.111 31.3176Z" fill="#1C2226"/>
<path d="M155.129 26.3588C155.129 26.3588 147.599 23.8712 148.868 12.8691C148.868 12.8691 130.17 30.5661 116.312 17.5771C116.312 17.5771 122.507 15.9243 125.061 11.6837C129.719 3.95378 143.108 -6.6978 153.827 5.62331C153.827 5.62331 166.866 3.60318 163.126 23.6876L155.129 26.3588Z" fill="#1C2226"/>
<path d="M155.128 26.359C155.846 29.4309 158.918 31.3508 161.99 30.6496C165.079 29.9318 166.982 26.8598 166.281 23.7879C165.563 20.716 162.491 18.796 159.419 19.4972C156.331 20.2151 154.411 23.287 155.128 26.359Z" fill="#FCC9A7"/>
<path d="M145.613 61.7196L153.677 61.8699L148.034 73.5566L141.94 62.354L145.613 61.7196Z" fill="#0C2C40"/>
<path d="M160.589 49.9154L150.205 62.0362L156.967 69.7994L169.405 52.7035C169.405 52.7035 166.216 47.578 160.589 49.9154Z" fill="#FFF7F3"/>
<path d="M145.613 61.7191L139.636 68.464L135.429 57.946C135.429 57.946 136.531 53.2212 139.97 54.1228L145.613 61.7191Z" fill="#FFF7F3"/>
<path d="M147.817 69.7833C147.817 69.7833 140.02 90.1181 141.957 118.968L149.636 125.98L158.602 117.348L148.935 68.4644L147.817 69.7833Z" fill="#0C2C40"/>
<path d="M162.392 118.066L145.697 123.559L144.595 133.359L166.733 126.748L162.392 118.066Z" fill="#FCC9A7"/>
<path d="M148.185 130.037C148.185 135.763 143.544 140.421 137.8 140.421C132.074 140.421 127.416 135.78 127.416 130.037C127.416 124.31 132.057 119.652 137.8 119.652C143.527 119.652 148.185 124.294 148.185 130.037Z" fill="#FCC9A7"/>
<path d="M145.914 135.663H116.897C116.897 135.663 99.217 134.678 98.1651 149.186C97.1133 163.695 126.08 207.87 130.304 230.025L154.579 228.021L135.112 165.064L178.586 165.314C181.809 165.331 185.014 164.863 188.053 163.811C196.517 160.873 209.439 156.666 202.394 133.359L145.914 135.663Z" fill="#0C2C40"/>
<path d="M58.3802 84.3584H108.55C110.202 84.3584 111.622 85.5104 111.972 87.1298L121.422 131.439C121.889 133.609 120.22 135.663 117.999 135.663H66.995C65.3255 135.663 63.8897 134.478 63.5725 132.842L54.9577 88.5322C54.5237 86.3618 56.1765 84.3584 58.3802 84.3584Z" fill="#B2B2B2"/>
<path d="M55.4921 84.3582H105.645C107.298 84.3582 108.717 85.5101 109.067 87.1296L118.517 131.439C118.984 133.609 117.331 135.663 115.094 135.663H64.1068C62.4373 135.663 61.0015 134.477 60.6843 132.841L52.0696 88.532C51.6355 86.3616 53.2883 84.3582 55.4921 84.3582Z" fill="#D1D1D1"/>
<path d="M120.053 131.873H154.328C155.38 131.873 156.215 132.725 156.215 133.76C156.215 134.811 155.364 135.646 154.328 135.646H119.385L120.053 131.873Z" fill="#B2B2B2"/>
<path d="M86.5456 108.85C86.5456 111.872 84.1081 114.309 81.0863 114.309C78.0644 114.309 75.627 111.855 75.627 108.85C75.627 105.828 78.0811 103.391 81.0863 103.391C84.1081 103.391 86.5456 105.828 86.5456 108.85Z" fill="white"/>
<path d="M175.749 73.2225L194.08 102.823L150.205 118.483L156.215 131.472C156.215 131.472 193.73 127.265 211.861 113.291C213.53 112.006 214.365 109.919 214.081 107.832C213.23 101.154 209.59 84.9426 194.08 61.9031C190.925 57.2117 184.647 55.7926 179.756 58.6308C174.664 61.5692 172.877 68.0804 175.749 73.2225Z" fill="#F7EBE7"/>
<path d="M161.875 114.309L194.08 102.823L177.969 76.795" stroke="#EADDD8" stroke-width="0.7599" stroke-miterlimit="10" stroke-linecap="round" stroke-linejoin="round"/>
<path d="M140.07 104.509L132.14 83.5736" stroke="#EADDD8" stroke-width="0.7599" stroke-miterlimit="10" stroke-linecap="round" stroke-linejoin="round"/>
<path d="M162.392 130.588C162.392 130.588 187.034 127.499 199.455 120.387" stroke="#EADDD8" stroke-width="0.7599" stroke-miterlimit="10" stroke-linecap="round" stroke-linejoin="round"/>
</svg>
