<svg width="48" height="48" viewBox="0 0 48 48" fill="none" xmlns="http://www.w3.org/2000/svg">
<path d="M31.1905 30.4H30.5833V21.9C30.5833 18.3725 27.9448 15.4575 24.5119 14.9725V14C24.5119 13.4475 24.0591 13 23.5 13C22.9409 13 22.4881 13.4475 22.4881 14V14.9725C19.0552 15.4575 16.4167 18.3725 16.4167 21.9V30.4H15.8095C15.3618 30.4 15 30.7575 15 31.2V32C15 32.11 15.0911 32.2 15.2024 32.2H20.6667C20.6667 33.745 21.9366 35 23.5 35C25.0634 35 26.3333 33.745 26.3333 32.2H31.7976C31.9089 32.2 32 32.11 32 32V31.2C32 30.7575 31.6382 30.4 31.1905 30.4ZM23.5 33.4C22.8296 33.4 22.2857 32.8625 22.2857 32.2H24.7143C24.7143 32.8625 24.1704 33.4 23.5 33.4ZM28.7619 21.9H18.2381C19.0476 22.2 19.2677 23.5825 20.2619 22.6C21.2561 21.6175 22.0935 22.2 23.5 22.2C24.9065 22.2 25.3391 21.6175 26.3333 22.6C27.3275 23.5825 27.5476 22.6 28.7619 21.9Z" fill="#3C74DC"/>
<rect x="0.25" y="0.25" width="47.5" height="47.5" rx="7.75" stroke="#C4C4C4" stroke-width="0.5"/>
</svg>
