<svg width="16" height="17" viewBox="0 0 16 17" fill="none" xmlns="http://www.w3.org/2000/svg">
<path d="M7.37124 0.524753C8.98638 0.397415 10.6021 0.763477 12.0047 1.5745C13.4072 2.38553 14.5305 3.60329 15.2258 5.06665C15.9211 6.53002 16.1557 8.17002 15.8986 9.76964C15.6415 11.3693 14.9047 12.8531 13.7858 14.0249C12.6669 15.1966 11.2187 16.001 9.63259 16.3316C8.04653 16.6623 6.39746 16.5036 4.90358 15.8765C3.4097 15.2494 2.14143 14.1835 1.26658 12.8198C0.391725 11.4562 -0.0484704 9.85905 0.00423588 8.23975C0.00719062 8.14126 0.0295156 8.04432 0.0699364 7.95445C0.110357 7.86459 0.168082 7.78357 0.239816 7.71601C0.311549 7.64846 0.395886 7.59569 0.488011 7.56073C0.580135 7.52577 0.678244 7.5093 0.776736 7.51225C0.875227 7.51521 0.972172 7.53753 1.06204 7.57795C1.1519 7.61837 1.23292 7.6761 1.30048 7.74783C1.36803 7.81957 1.42079 7.9039 1.45576 7.99603C1.49072 8.08815 1.50719 8.18626 1.50424 8.28475C1.45356 9.81761 1.94654 11.319 2.896 12.5235C3.84546 13.7279 5.19024 14.5579 6.69256 14.8665C8.19487 15.1752 9.75794 14.9427 11.1054 14.2101C12.4528 13.4776 13.4978 12.2921 14.0556 10.8635C14.6134 9.43481 14.648 7.85492 14.1534 6.40318C13.6587 4.95144 12.6667 3.72137 11.3526 2.93047C10.0386 2.13956 8.48722 1.83879 6.97282 2.08131C5.45843 2.32384 4.07857 3.09405 3.07724 4.25575L2.87324 4.50375H5.25224L5.35424 4.51175C5.53375 4.53645 5.69825 4.62531 5.81733 4.76189C5.9364 4.89847 6.00201 5.07355 6.00201 5.25475C6.00201 5.43596 5.9364 5.61103 5.81733 5.74762C5.69825 5.8842 5.53375 5.97305 5.35424 5.99775L5.25224 6.00475H1.25224L1.15024 5.99775C0.988084 5.97549 0.837668 5.90079 0.721933 5.78505C0.606199 5.66932 0.531501 5.5189 0.509236 5.35675L0.502236 5.25475V1.25475L0.509236 1.15275C0.531501 0.990601 0.606199 0.840185 0.721933 0.72445C0.837668 0.608716 0.988084 0.534018 1.15024 0.511753L1.25224 0.504753L1.35424 0.511753C1.51639 0.534018 1.6668 0.608716 1.78254 0.72445C1.89827 0.840185 1.97297 0.990601 1.99524 1.15275L2.00224 1.25475L2.00124 3.20775C3.37378 1.6487 5.30032 0.686504 7.37124 0.525753V0.524753ZM7.74924 4.50375L7.85124 4.51075C8.01339 4.53302 8.1638 4.60772 8.27954 4.72345C8.39527 4.83918 8.46997 4.9896 8.49224 5.15175L8.49924 5.25375V8.49875L10.2492 8.49975L10.3512 8.50675C10.5315 8.53064 10.697 8.61921 10.8168 8.75598C10.9366 8.89275 11.0027 9.06841 11.0027 9.25025C11.0027 9.4321 10.9366 9.60775 10.8168 9.74452C10.697 9.88129 10.5315 9.96986 10.3512 9.99375L10.2492 9.99975H7.74924L7.64724 9.99375C7.48494 9.97144 7.33441 9.89659 7.21866 9.78066C7.10291 9.66473 7.0283 9.51409 7.00624 9.35175L6.99924 9.24975V5.25375L7.00624 5.15175C7.0285 4.9896 7.1032 4.83918 7.21893 4.72345C7.33467 4.60772 7.48508 4.53302 7.64724 4.51075L7.74924 4.50375Z" fill="#121212"/>
</svg>
