<svg width="32" height="32" viewBox="0 0 32 32" fill="none" xmlns="http://www.w3.org/2000/svg">
<path d="M29 7.94695C28.0437 8.35945 27.0031 8.65632 25.9312 8.77195C27.0441 8.11081 27.8774 7.06632 28.275 5.83445C27.2307 6.45566 26.0867 6.89127 24.8937 7.12195C24.3951 6.58891 23.792 6.16426 23.1221 5.87447C22.4522 5.58468 21.7298 5.43596 21 5.43757C18.0468 5.43757 15.6718 7.83132 15.6718 10.7688C15.6718 11.1813 15.7218 11.5938 15.8031 11.9907C11.3812 11.7594 7.43745 9.64695 4.81558 6.41257C4.33784 7.22856 4.08749 8.15766 4.09058 9.1032C4.09058 10.9532 5.0312 12.5844 6.46558 13.5438C5.62028 13.5105 4.79477 13.2782 4.0562 12.8657V12.9313C4.0562 15.5219 5.88745 17.6688 8.32808 18.1626C7.86982 18.2816 7.39841 18.3425 6.92495 18.3438C6.57808 18.3438 6.24995 18.3095 5.9187 18.2626C6.5937 20.3751 8.55933 21.9095 10.9 21.9594C9.0687 23.3938 6.77495 24.2376 4.28433 24.2376C3.83745 24.2376 3.42495 24.2219 2.99683 24.1719C5.35933 25.6876 8.16245 26.5626 11.1812 26.5626C20.9812 26.5626 26.3437 18.4438 26.3437 11.3969C26.3437 11.1657 26.3437 10.9344 26.3281 10.7032C27.3656 9.94382 28.275 9.0032 29 7.94695Z" fill="#1DA1F2"/>
</svg>
