<svg width="32" height="32" viewBox="0 0 32 32" fill="none" xmlns="http://www.w3.org/2000/svg">
<path d="M26.88 9.11993C23.04 3.19993 15.2 1.43993 9.12001 5.11993C3.20001 8.79993 1.28001 16.7999 5.12001 22.7199L5.44001 23.1999L4.16001 27.9999L8.96001 26.7199L9.44001 27.0399C11.52 28.1599 13.76 28.7999 16 28.7999C18.4 28.7999 20.8 28.1599 22.88 26.8799C28.8 23.0399 30.56 15.1999 26.88 9.11993ZM23.52 21.4399C22.88 22.3999 22.08 23.0399 20.96 23.1999C20.32 23.1999 19.52 23.5199 16.32 22.2399C13.6 20.9599 11.36 18.8799 9.76001 16.4799C8.80001 15.3599 8.32001 13.9199 8.16001 12.4799C8.16001 11.1999 8.64001 10.0799 9.44001 9.27993C9.76001 8.95993 10.08 8.79993 10.4 8.79993H11.2C11.52 8.79993 11.84 8.79993 12 9.43993C12.32 10.2399 13.12 12.1599 13.12 12.3199C13.28 12.4799 13.28 12.7999 13.12 12.9599C13.28 13.2799 13.12 13.5999 12.96 13.7599C12.8 13.9199 12.64 14.2399 12.48 14.3999C12.16 14.5599 12 14.8799 12.16 15.1999C12.8 16.1599 13.6 17.1199 14.4 17.9199C15.36 18.7199 16.32 19.3599 17.44 19.8399C17.76 19.9999 18.08 19.9999 18.24 19.6799C18.4 19.3599 19.2 18.5599 19.52 18.2399C19.84 17.9199 20 17.9199 20.32 18.0799L22.88 19.3599C23.2 19.5199 23.52 19.6799 23.68 19.8399C23.84 20.3199 23.84 20.9599 23.52 21.4399Z" fill="#2D9F4C"/>
</svg>
