<svg width="20" height="20" viewBox="0 0 20 20" fill="none" xmlns="http://www.w3.org/2000/svg">
<path d="M16.5955 13.7897C16.1591 13.7913 15.7275 13.8773 15.3266 14.0428C14.9257 14.2082 14.5639 14.4495 14.2627 14.7523L6.36374 10.964C6.55805 10.3993 6.55805 9.78973 6.36374 9.22506L14.2757 5.36843C14.8424 5.9408 15.6109 6.29077 16.4319 6.35032C17.2528 6.40988 18.0676 6.17477 18.7177 5.69068C19.3679 5.2066 19.807 4.50813 19.9497 3.73103C20.0925 2.95393 19.9287 2.15372 19.4901 1.48593C19.0516 0.818149 18.3696 0.330494 17.5768 0.117754C16.784 -0.0949864 15.937 -0.0176129 15.2004 0.334835C14.4638 0.687283 13.8902 1.28963 13.5912 2.02479C13.2921 2.75995 13.289 3.57541 13.5823 4.31268L5.74815 8.13204C5.32505 7.63611 4.75226 7.27773 4.1083 7.10604C3.46434 6.93435 2.78073 6.95774 2.15119 7.17301C1.52164 7.38828 0.976979 7.7849 0.591855 8.30848C0.206731 8.83207 0 9.457 0 10.0976C0 10.7382 0.206731 11.3631 0.591855 11.8867C0.976979 12.4103 1.52164 12.8069 2.15119 13.0222C2.78073 13.2375 3.46434 13.2609 4.1083 13.0892C4.75226 12.9175 5.32505 12.5591 5.74815 12.0632L13.5629 15.8329C13.4309 16.1727 13.3628 16.5322 13.362 16.8948C13.362 17.509 13.552 18.1093 13.9081 18.62C14.2641 19.1306 14.7701 19.5286 15.3621 19.7636C15.9541 19.9987 16.6056 20.0601 17.2341 19.9403C17.8625 19.8205 18.4398 19.5248 18.893 19.0905C19.3461 18.6562 19.6546 18.103 19.7797 17.5006C19.9047 16.8983 19.8405 16.2739 19.5953 15.7065C19.3501 15.1391 18.9348 14.6542 18.402 14.313C17.8692 13.9718 17.2428 13.7897 16.602 13.7897H16.5955Z" fill="#3C74DC"/>
</svg>
