<svg width="32" height="32" viewBox="0 0 32 32" fill="none" xmlns="http://www.w3.org/2000/svg">
<path d="M3.42859 11.5703L15.6046 17.9029C15.7267 17.9664 15.8624 17.9995 16 17.9995C16.1377 17.9995 16.2733 17.9664 16.3954 17.9029L28.5714 11.5714V22.5714C28.5715 23.5202 28.2085 24.4329 27.557 25.1226C26.9054 25.8122 26.0147 26.2263 25.0674 26.28L24.8572 26.2857H7.14287C6.19415 26.2858 5.28136 25.9228 4.59175 25.2712C3.90215 24.6197 3.48802 23.7289 3.4343 22.7817L3.42859 22.5714V11.5703ZM7.14287 5.71429H24.8572C25.8059 5.71422 26.7187 6.07721 27.4083 6.72877C28.0979 7.38033 28.512 8.27108 28.5657 9.21829L28.5714 9.42857V9.63886L16 16.176L3.42859 9.63886V9.42857C3.42853 8.47984 3.79151 7.56705 4.44307 6.87745C5.09463 6.18785 5.98538 5.77371 6.93259 5.72L7.14287 5.71429H24.8572H7.14287Z" fill="#F29900"/>
</svg>
