<svg width="28" height="28" viewBox="0 0 28 28" fill="none" xmlns="http://www.w3.org/2000/svg">
<path d="M5 10.4253L14.2012 15.2107C14.2935 15.2587 14.396 15.2837 14.5 15.2837C14.604 15.2837 14.7065 15.2587 14.7988 15.2107L24 10.4261V18.7386C24 19.4556 23.7257 20.1454 23.2334 20.6665C22.741 21.1876 22.0679 21.5006 21.3521 21.5411L21.1932 21.5455H7.80682C7.08988 21.5455 6.4001 21.2712 5.87898 20.7788C5.35786 20.2865 5.04491 19.6133 5.00432 18.8975L5 18.7386V10.4253ZM7.80682 6H21.1932C21.9101 5.99995 22.5999 6.27425 23.121 6.76663C23.6421 7.259 23.9551 7.93212 23.9957 8.64791L24 8.80682V8.96573L14.5 13.9057L5 8.96573V8.80682C4.99995 8.08988 5.27425 7.4001 5.76663 6.87898C6.259 6.35786 6.93212 6.04491 7.64791 6.00432L7.80682 6H21.1932H7.80682Z" fill="#F29900"/>
</svg>
